<svg width="1076" height="1076" version="1.1" xmlns="http://www.w3.org/2000/svg" desc="Created with imagetracer.js version 1.2.6" ><path fill="rgb(53,101,137)" stroke="rgb(53,101,137)" stroke-width="1" opacity="0.8666666666666667" d="M 619.5 86 L 626 91.5 L 625.5 94 Q 625 88.5 620.5 87 L 619.5 86 Z " /><path fill="rgb(53,101,137)" stroke="rgb(53,101,137)" stroke-width="1" opacity="0.8666666666666667" d="M 513.5 97 L 509 102.5 L 507.5 105 L 508 103.5 L 513.5 97 Z " /><path fill="rgb(53,101,137)" stroke="rgb(53,101,137)" stroke-width="1" opacity="0.8666666666666667" d="M 430.5 106 L 428.5 109 L 430.5 106 Z " /><path fill="rgb(53,101,137)" stroke="rgb(53,101,137)" stroke-width="1" opacity="0.8666666666666667" d="M 747.5 145 L 748.5 147 L 747.5 145 Z " /><path fill="rgb(53,101,137)" stroke="rgb(53,101,137)" stroke-width="1" opacity="0.8666666666666667" d="M 747.5 154 L 746.5 156 L 747.5 154 Z " /><path fill="rgb(53,101,137)" stroke="rgb(53,101,137)" stroke-width="1" opacity="0.8666666666666667" d="M 746.5 157 L 747 159.5 L 746 159.5 L 746.5 157 Z " /><path fill="rgb(53,101,137)" stroke="rgb(53,101,137)" stroke-width="1" opacity="0.8666666666666667" d="M 304.5 222 L 305.5 224 L 304.5 222 Z " /><path fill="rgb(53,101,137)" stroke="rgb(53,101,137)" stroke-width="1" opacity="0.8666666666666667" d="M 739.5 235 L 740 237.5 L 739 237.5 L 739.5 235 Z " /><path fill="rgb(53,101,137)" stroke="rgb(53,101,137)" stroke-width="1" opacity="0.8666666666666667" d="M 729.5 254 L 728.5 256 L 729.5 254 Z " /><path fill="rgb(53,101,137)" stroke="rgb(53,101,137)" stroke-width="1" opacity="0.8666666666666667" d="M 725.5 286 L 720.5 292 L 709.5 296 L 685.5 296 Q 684 298.5 678.5 297 L 678.5 296 Q 684 297.5 685.5 295 L 709.5 295 L 720.5 291 L 725.5 286 Z " /><path fill="rgb(53,101,137)" stroke="rgb(53,101,137)" stroke-width="1" opacity="0.8666666666666667" d="M 669.5 299 L 671 299.5 L 662.5 305 L 663.5 303 L 669.5 299 Z " /><path fill="rgb(53,101,137)" stroke="rgb(53,101,137)" stroke-width="1" opacity="0.8666666666666667" d="M 448.5 306 L 449 308.5 L 448 308.5 L 448.5 306 Z " /><path fill="rgb(53,101,137)" stroke="rgb(53,101,137)" stroke-width="1" opacity="0.8666666666666667" d="M 661.5 306 L 659.5 309 L 661.5 306 Z " /><path fill="rgb(53,101,137)" stroke="rgb(53,101,137)" stroke-width="1" opacity="0.8666666666666667" d="M 450.5 312 L 455 315.5 L 461 330.5 L 462 346.5 L 461 347.5 L 460 358.5 L 456.5 368 L 456 364.5 L 460 354.5 L 461 337.5 L 459 326.5 L 454 315 L 450.5 312 Z " /><path fill="rgb(53,101,137)" stroke="rgb(53,101,137)" stroke-width="1" opacity="0.8666666666666667" d="M 655.5 325 L 653.5 328 L 655.5 325 Z " /><path fill="rgb(53,101,137)" stroke="rgb(53,101,137)" stroke-width="1" opacity="0.8666666666666667" d="M 455.5 369 L 462 377.5 L 457 373.5 L 455.5 369 Z " /><path fill="rgb(53,101,137)" stroke="rgb(53,101,137)" stroke-width="1" opacity="0.8666666666666667" d="M 467.5 377 L 474 377.5 L 467.5 378 L 467.5 377 Z " /><path fill="rgb(53,101,137)" stroke="rgb(53,101,137)" stroke-width="1" opacity="0.8666666666666667" d="M 504.5 380 L 505.5 382 Q 502.7 382.7 504.5 380 Z " /><path fill="rgb(53,101,137)" stroke="rgb(53,101,137)" stroke-width="1" opacity="0.8666666666666667" d="M 507.5 382 L 510 385.5 L 507 383.5 L 507.5 382 Z " /><path fill="rgb(53,101,137)" stroke="rgb(53,101,137)" stroke-width="1" opacity="0.8666666666666667" d="M 668.5 430 L 670 437.5 L 669 437.5 L 668.5 430 Z " /><path fill="rgb(53,101,137)" stroke="rgb(53,101,137)" stroke-width="1" opacity="0.8666666666666667" d="M 675.5 474 L 676 476.5 L 675 476.5 L 675.5 474 Z " /><path fill="rgb(53,101,137)" stroke="rgb(53,101,137)" stroke-width="1" opacity="0.8666666666666667" d="M 675.5 482 L 676 490.5 L 675 490.5 L 675.5 482 Z " /><path fill="rgb(53,101,137)" stroke="rgb(53,101,137)" stroke-width="1" opacity="0.8666666666666667" d="M 675.5 496 L 676 510.5 L 675 510.5 L 675.5 496 Z " /><path fill="rgb(53,101,137)" stroke="rgb(53,101,137)" stroke-width="1" opacity="0.8666666666666667" d="M 450.5 577 L 447.5 581 L 450.5 577 Z " /><path fill="rgb(53,101,137)" stroke="rgb(53,101,137)" stroke-width="1" opacity="0.8666666666666667" d="M 446.5 587 L 447 593.5 L 446 593.5 L 446.5 587 Z " /><path fill="rgb(53,101,137)" stroke="rgb(53,101,137)" stroke-width="1" opacity="0.8666666666666667" d="M 447.5 595 L 448 597.5 L 447 597.5 L 447.5 595 Z " /><path fill="rgb(53,101,137)" stroke="rgb(53,101,137)" stroke-width="1" opacity="0.8666666666666667" d="M 450.5 604 L 451 606.5 L 450 606.5 L 450.5 604 Z " /><path fill="rgb(53,101,137)" stroke="rgb(53,101,137)" stroke-width="1" opacity="0.8666666666666667" d="M 691.5 611 L 688.5 615 L 691.5 611 Z " /><path fill="rgb(53,101,137)" stroke="rgb(53,101,137)" stroke-width="1" opacity="0.8666666666666667" d="M 455.5 616 L 459 622.5 L 457.5 625 L 457 623.5 L 457 621.5 L 455.5 616 Z " /><path fill="rgb(53,101,137)" stroke="rgb(53,101,137)" stroke-width="1" opacity="0.8666666666666667" d="M 685.5 618 L 687 618.5 L 684.5 620 L 685.5 618 Z " /><path fill="rgb(53,101,137)" stroke="rgb(53,101,137)" stroke-width="1" opacity="0.8666666666666667" d="M 463.5 631 L 465 634.5 L 464 634.5 L 463.5 631 Z " /><path fill="rgb(53,101,137)" stroke="rgb(53,101,137)" stroke-width="1" opacity="0.8666666666666667" d="M 678.5 640 L 677.5 642 L 678.5 640 Z " /><path fill="rgb(53,101,137)" stroke="rgb(53,101,137)" stroke-width="1" opacity="0.8666666666666667" d="M 676.5 643 L 673.5 647 L 676.5 643 Z " /><path fill="rgb(53,101,137)" stroke="rgb(53,101,137)" stroke-width="1" opacity="0.8666666666666667" d="M 672.5 648 L 671.5 650 L 668.5 651 L 668.5 650 L 672.5 648 Z " /><path fill="rgb(53,101,137)" stroke="rgb(53,101,137)" stroke-width="1" opacity="0.8666666666666667" d="M 496.5 653 L 507 653.5 L 496.5 654 L 495.5 655 L 496.5 653 Z " /><path fill="rgb(53,101,137)" stroke="rgb(53,101,137)" stroke-width="1" opacity="0.8666666666666667" d="M 899.5 806 L 920 806.5 L 899.5 807 L 899.5 806 Z " /><path fill="rgb(53,101,137)" stroke="rgb(53,101,137)" stroke-width="1" opacity="0.8666666666666667" d="M 892.5 807 L 896 807.5 L 892.5 808 L 892.5 807 Z " /><path fill="rgb(53,101,137)" stroke="rgb(53,101,137)" stroke-width="1" opacity="0.8666666666666667" d="M 923.5 807 L 926 807.5 L 923.5 808 L 923.5 807 Z " /><path fill="rgb(53,101,137)" stroke="rgb(53,101,137)" stroke-width="1" opacity="0.8666666666666667" d="M 128.5 808 L 162 808.5 L 128.5 809 L 128.5 808 Z " /><path fill="rgb(53,101,137)" stroke="rgb(53,101,137)" stroke-width="1" opacity="0.8666666666666667" d="M 276.5 808 L 314 808.5 L 276.5 809 L 276.5 808 Z " /><path fill="rgb(53,101,137)" stroke="rgb(53,101,137)" stroke-width="1" opacity="0.8666666666666667" d="M 407.5 808 L 425 808.5 L 407 809 L 406.5 949 L 406 809.5 L 407.5 808 Z " /><path fill="rgb(53,101,137)" stroke="rgb(53,101,137)" stroke-width="1" opacity="0.8666666666666667" d="M 465.5 808 L 482 808.5 L 465.5 809 L 465.5 808 Z " /><path fill="rgb(53,101,137)" stroke="rgb(53,101,137)" stroke-width="1" opacity="0.8666666666666667" d="M 571.5 808 L 588 808.5 L 571.5 809 L 571.5 808 Z " /><path fill="rgb(53,101,137)" stroke="rgb(53,101,137)" stroke-width="1" opacity="0.8666666666666667" d="M 724.5 808 L 740 808.5 L 724 809 L 723.5 811 L 723 809.5 L 724.5 808 Z " /><path fill="rgb(53,101,137)" stroke="rgb(53,101,137)" stroke-width="1" opacity="0.8666666666666667" d="M 832.5 808 L 848 808.5 L 832 809 L 831.5 811 L 831 809.5 L 832.5 808 Z " /><path fill="rgb(53,101,137)" stroke="rgb(53,101,137)" stroke-width="1" opacity="0.8666666666666667" d="M 887.5 808 L 890 808.5 L 887.5 809 L 887.5 808 Z " /><path fill="rgb(53,101,137)" stroke="rgb(53,101,137)" stroke-width="1" opacity="0.8666666666666667" d="M 927.5 808 L 930 808.5 L 927.5 809 L 927.5 808 Z " /><path fill="rgb(53,101,137)" stroke="rgb(53,101,137)" stroke-width="1" opacity="0.8666666666666667" d="M 173.5 809 L 179 809.5 L 173.5 810 L 173.5 809 Z " /><path fill="rgb(53,101,137)" stroke="rgb(53,101,137)" stroke-width="1" opacity="0.8666666666666667" d="M 272.5 809 L 273 949 L 291 949.5 L 272 950 L 272.5 809 Z " /><path fill="rgb(53,101,137)" stroke="rgb(53,101,137)" stroke-width="1" opacity="0.8666666666666667" d="M 323.5 809 L 328 809.5 L 323.5 810 L 323.5 809 Z " /><path fill="rgb(53,101,137)" stroke="rgb(53,101,137)" stroke-width="1" opacity="0.8666666666666667" d="M 463.5 809 L 464 949 L 549.5 949 L 550 948.5 L 550 934.5 L 551 934.5 L 551 949.5 L 550.5 950 L 464.5 950 L 463 948.5 L 463.5 809 Z " /><path fill="rgb(53,101,137)" stroke="rgb(53,101,137)" stroke-width="1" opacity="0.8666666666666667" d="M 589.5 809 L 590 932.5 L 591 933.5 L 589 932.5 L 589.5 809 Z " /><path fill="rgb(53,101,137)" stroke="rgb(53,101,137)" stroke-width="1" opacity="0.8666666666666667" d="M 742.5 809 L 761 857.5 L 760 857.5 L 742 810.5 L 742.5 809 Z " /><path fill="rgb(53,101,137)" stroke="rgb(53,101,137)" stroke-width="1" opacity="0.8666666666666667" d="M 882.5 809 L 885 809.5 L 882.5 810 L 882.5 809 Z " /><path fill="rgb(53,101,137)" stroke="rgb(53,101,137)" stroke-width="1" opacity="0.8666666666666667" d="M 931.5 809 Q 944.1 812.4 951 821.5 Q 955.2 825.8 956 833.5 L 955 833.5 L 952 824.5 L 947 818 Q 941.1 812.7 931.5 810 L 931.5 809 Z " /><path fill="rgb(53,101,137)" stroke="rgb(53,101,137)" stroke-width="1" opacity="0.8666666666666667" d="M 183.5 810 L 187 810.5 L 183.5 811 L 183.5 810 Z " /><path fill="rgb(53,101,137)" stroke="rgb(53,101,137)" stroke-width="1" opacity="0.8666666666666667" d="M 724.5 812 L 726 815.5 L 725 815.5 L 724.5 812 Z " /><path fill="rgb(53,101,137)" stroke="rgb(53,101,137)" stroke-width="1" opacity="0.8666666666666667" d="M 872.5 812 L 873 828 L 875 828.5 L 872 829 L 872.5 812 Z " /><path fill="rgb(53,101,137)" stroke="rgb(53,101,137)" stroke-width="1" opacity="0.8666666666666667" d="M 849.5 813 L 850 814.5 L 848.5 817 L 848 815.5 L 849.5 813 Z " /><path fill="rgb(53,101,137)" stroke="rgb(53,101,137)" stroke-width="1" opacity="0.8666666666666667" d="M 344.5 814 L 348 816.5 L 346.5 816 L 344.5 814 Z " /><path fill="rgb(53,101,137)" stroke="rgb(53,101,137)" stroke-width="1" opacity="0.8666666666666667" d="M 349.5 817 L 355.5 824 L 349.5 817 Z " /><path fill="rgb(53,101,137)" stroke="rgb(53,101,137)" stroke-width="1" opacity="0.8666666666666667" d="M 213.5 819 L 221 824.5 L 218.5 823 Q 213.9 821.8 213.5 819 Z " /><path fill="rgb(53,101,137)" stroke="rgb(53,101,137)" stroke-width="1" opacity="0.8666666666666667" d="M 727.5 820 L 729 823.5 L 728 823.5 L 727.5 820 Z " /><path fill="rgb(53,101,137)" stroke="rgb(53,101,137)" stroke-width="1" opacity="0.8666666666666667" d="M 846.5 821 L 847 822.5 L 845.5 825 L 845 823.5 L 846.5 821 Z " /><path fill="rgb(53,101,137)" stroke="rgb(53,101,137)" stroke-width="1" opacity="0.8666666666666667" d="M 898.5 822 L 902 822.5 L 898.5 823 L 898.5 822 Z " /><path fill="rgb(53,101,137)" stroke="rgb(53,101,137)" stroke-width="1" opacity="0.8666666666666667" d="M 915.5 822 L 918 822.5 L 915.5 823 L 915.5 822 Z " /><path fill="rgb(53,101,137)" stroke="rgb(53,101,137)" stroke-width="1" opacity="0.8666666666666667" d="M 891.5 823 L 895 823.5 L 891.5 824 L 891.5 823 Z " /><path fill="rgb(53,101,137)" stroke="rgb(53,101,137)" stroke-width="1" opacity="0.8666666666666667" d="M 142 824 L 175 824.5 L 143 825 L 143 933.5 L 143.5 934 L 172.5 934 L 172.5 935 L 143.5 935 L 142 933.5 L 142 824 Z " /><path fill="rgb(53,101,137)" stroke="rgb(53,101,137)" stroke-width="1" opacity="0.8666666666666667" d="M 291.5 824 L 322 824.5 L 291.5 825 L 291.5 824 Z " /><path fill="rgb(53,101,137)" stroke="rgb(53,101,137)" stroke-width="1" opacity="0.8666666666666667" d="M 180.5 825 L 183 825.5 L 180.5 826 L 180.5 825 Z " /><path fill="rgb(53,101,137)" stroke="rgb(53,101,137)" stroke-width="1" opacity="0.8666666666666667" d="M 356.5 825 L 360 831.5 L 359 831.5 L 356.5 825 Z " /><path fill="rgb(53,101,137)" stroke="rgb(53,101,137)" stroke-width="1" opacity="0.8666666666666667" d="M 729.5 825 L 732 831.5 L 731 831.5 L 729.5 825 Z " /><path fill="rgb(53,101,137)" stroke="rgb(53,101,137)" stroke-width="1" opacity="0.8666666666666667" d="M 844.5 826 L 845 827.5 L 842.5 833 L 842 831.5 L 844.5 826 Z " /><path fill="rgb(53,101,137)" stroke="rgb(53,101,137)" stroke-width="1" opacity="0.8666666666666667" d="M 930.5 827 Q 936.6 830.4 938 838.5 L 937 838.5 L 935 832.5 L 930.5 827 Z " /><path fill="rgb(53,101,137)" stroke="rgb(53,101,137)" stroke-width="1" opacity="0.8666666666666667" d="M 193.5 828 Q 206 832 213 841.5 Q 218.4 848.1 220 858.5 L 219 858.5 L 216 848.5 L 208 837 L 193.5 829 L 193.5 828 Z " /><path fill="rgb(53,101,137)" stroke="rgb(53,101,137)" stroke-width="1" opacity="0.8666666666666667" d="M 333.5 828 Q 342.4 832.1 343 844.5 L 342 844.5 L 342 840.5 L 339 834.5 L 333.5 828 Z " /><path fill="rgb(53,101,137)" stroke="rgb(53,101,137)" stroke-width="1" opacity="0.8666666666666667" d="M 227.5 831 L 229.5 834 L 227.5 831 Z " /><path fill="rgb(53,101,137)" stroke="rgb(53,101,137)" stroke-width="1" opacity="0.8666666666666667" d="M 360.5 833 L 362 838.5 L 361 838.5 L 360.5 833 Z " /><path fill="rgb(53,101,137)" stroke="rgb(53,101,137)" stroke-width="1" opacity="0.8666666666666667" d="M 732.5 833 L 735 839.5 L 734 839.5 L 732.5 833 Z " /><path fill="rgb(53,101,137)" stroke="rgb(53,101,137)" stroke-width="1" opacity="0.8666666666666667" d="M 841.5 834 L 842 835.5 L 840.5 838 L 840 836.5 L 841.5 834 Z " /><path fill="rgb(53,101,137)" stroke="rgb(53,101,137)" stroke-width="1" opacity="0.8666666666666667" d="M 956.5 835 L 957 849.5 Q 954.3 860.8 946.5 867 L 933 873.5 Q 946 876.5 953 885.5 L 947.5 881 L 931 873.5 L 941.5 869 L 950 863 L 956 849.5 L 956.5 835 Z " /><path fill="rgb(53,101,137)" stroke="rgb(53,101,137)" stroke-width="1" opacity="0.8666666666666667" d="M 821.5 836 L 822 837.5 L 820.5 840 L 820 838.5 L 821.5 836 Z " /><path fill="rgb(53,101,137)" stroke="rgb(53,101,137)" stroke-width="1" opacity="0.8666666666666667" d="M 233.5 840 L 235 842.5 L 234 842.5 L 233.5 840 Z " /><path fill="rgb(53,101,137)" stroke="rgb(53,101,137)" stroke-width="1" opacity="0.8666666666666667" d="M 362.5 840 L 363 856.5 L 362 856.5 L 362.5 840 Z " /><path fill="rgb(53,101,137)" stroke="rgb(53,101,137)" stroke-width="1" opacity="0.8666666666666667" d="M 938.5 840 L 939 849.5 L 937.5 853 L 937 850.5 L 938 849.5 L 938.5 840 Z " /><path fill="rgb(53,101,137)" stroke="rgb(53,101,137)" stroke-width="1" opacity="0.8666666666666667" d="M 735.5 841 L 737 844.5 L 736 844.5 L 735.5 841 Z " /><path fill="rgb(53,101,137)" stroke="rgb(53,101,137)" stroke-width="1" opacity="0.8666666666666667" d="M 838.5 842 L 839 843.5 L 837.5 846 L 837 844.5 L 838.5 842 Z " /><path fill="rgb(53,101,137)" stroke="rgb(53,101,137)" stroke-width="1" opacity="0.8666666666666667" d="M 343.5 847 L 344 851.5 L 343 851.5 L 343.5 847 Z " /><path fill="rgb(53,101,137)" stroke="rgb(53,101,137)" stroke-width="1" opacity="0.8666666666666667" d="M 836.5 847 L 837 848.5 L 834.5 854 L 834 852.5 L 836.5 847 Z " /><path fill="rgb(53,101,137)" stroke="rgb(53,101,137)" stroke-width="1" opacity="0.8666666666666667" d="M 738.5 849 L 740 852.5 L 739 852.5 L 738.5 849 Z " /><path fill="rgb(53,101,137)" stroke="rgb(53,101,137)" stroke-width="1" opacity="0.8666666666666667" d="M 342.5 854 L 343 857.5 L 336.5 869 Q 332.2 873.2 324.5 874 L 324.5 873 Q 334.5 871.5 339 864.5 L 342.5 854 Z " /><path fill="rgb(53,101,137)" stroke="rgb(53,101,137)" stroke-width="1" opacity="0.8666666666666667" d="M 740.5 854 L 743 860.5 L 742 860.5 L 740.5 854 Z " /><path fill="rgb(53,101,137)" stroke="rgb(53,101,137)" stroke-width="1" opacity="0.8666666666666667" d="M 936.5 854 L 936 855.5 L 930.5 862 L 928.5 863 L 929.5 861 L 935 856.5 L 936.5 854 Z " /><path fill="rgb(53,101,137)" stroke="rgb(53,101,137)" stroke-width="1" opacity="0.8666666666666667" d="M 833.5 855 L 834 856.5 L 831.5 862 L 831 860.5 L 833.5 855 Z " /><path fill="rgb(53,101,137)" stroke="rgb(53,101,137)" stroke-width="1" opacity="0.8666666666666667" d="M 239.5 856 L 240 858.5 L 239 858.5 L 239.5 856 Z " /><path fill="rgb(53,101,137)" stroke="rgb(53,101,137)" stroke-width="1" opacity="0.8666666666666667" d="M 361.5 858 L 362 861.5 Q 360.2 869.7 354.5 874 L 357 870.5 L 361.5 858 Z " /><path fill="rgb(53,101,137)" stroke="rgb(53,101,137)" stroke-width="1" opacity="0.8666666666666667" d="M 761.5 859 L 773 889.5 L 772 889.5 L 762 863.5 L 761.5 859 Z " /><path fill="rgb(53,101,137)" stroke="rgb(53,101,137)" stroke-width="1" opacity="0.8666666666666667" d="M 220.5 860 L 221 863.5 L 220 863.5 L 220.5 860 Z " /><path fill="rgb(53,101,137)" stroke="rgb(53,101,137)" stroke-width="1" opacity="0.8666666666666667" d="M 240.5 861 L 241 864.5 L 240 864.5 L 240.5 861 Z " /><path fill="rgb(53,101,137)" stroke="rgb(53,101,137)" stroke-width="1" opacity="0.8666666666666667" d="M 743.5 862 L 745 865.5 L 744 865.5 L 743.5 862 Z " /><path fill="rgb(53,101,137)" stroke="rgb(53,101,137)" stroke-width="1" opacity="0.8666666666666667" d="M 830.5 863 L 831 864.5 L 829.5 867 L 829 865.5 L 830.5 863 Z " /><path fill="rgb(53,101,137)" stroke="rgb(53,101,137)" stroke-width="1" opacity="0.8666666666666667" d="M 221.5 865 L 222 874.5 L 221 874.5 L 221.5 865 Z " /><path fill="rgb(53,101,137)" stroke="rgb(53,101,137)" stroke-width="1" opacity="0.8666666666666667" d="M 919.5 865 L 922 865.5 L 919.5 866 L 919.5 865 Z " /><path fill="rgb(53,101,137)" stroke="rgb(53,101,137)" stroke-width="1" opacity="0.8666666666666667" d="M 893.5 866 L 916 866.5 L 893 867 L 893 881 L 913.5 881 L 913.5 882 L 892 882 L 892 867.5 L 893.5 866 Z " /><path fill="rgb(53,101,137)" stroke="rgb(53,101,137)" stroke-width="1" opacity="0.8666666666666667" d="M 828.5 868 L 829 869.5 L 826.5 875 L 826 873.5 L 828.5 868 Z " /><path fill="rgb(53,101,137)" stroke="rgb(53,101,137)" stroke-width="1" opacity="0.8666666666666667" d="M 241.5 869 L 242 888.5 L 241 888.5 L 241.5 869 Z " /><path fill="rgb(53,101,137)" stroke="rgb(53,101,137)" stroke-width="1" opacity="0.8666666666666667" d="M 746.5 870 L 748 873.5 L 747 873.5 L 746.5 870 Z " /><path fill="rgb(53,101,137)" stroke="rgb(53,101,137)" stroke-width="1" opacity="0.8666666666666667" d="M 291.5 874 L 322 874.5 L 291.5 875 L 291.5 874 Z " /><path fill="rgb(53,101,137)" stroke="rgb(53,101,137)" stroke-width="1" opacity="0.8666666666666667" d="M 352.5 875 L 354 875.5 L 349.5 879 L 352.5 875 Z " /><path fill="rgb(53,101,137)" stroke="rgb(53,101,137)" stroke-width="1" opacity="0.8666666666666667" d="M 748.5 875 L 750 878.5 L 749 878.5 L 748.5 875 Z " /><path fill="rgb(53,101,137)" stroke="rgb(53,101,137)" stroke-width="1" opacity="0.8666666666666667" d="M 825.5 876 L 826 877.5 L 823.5 883 L 823 881.5 L 825.5 876 Z " /><path fill="rgb(53,101,137)" stroke="rgb(53,101,137)" stroke-width="1" opacity="0.8666666666666667" d="M 345.5 880 L 344.5 882 L 340 883.5 L 340.5 885 Q 337.5 883.5 340.5 882 L 345.5 880 Z " /><path fill="rgb(53,101,137)" stroke="rgb(53,101,137)" stroke-width="1" opacity="0.8666666666666667" d="M 916.5 882 L 920 882.5 L 916.5 883 L 916.5 882 Z " /><path fill="rgb(53,101,137)" stroke="rgb(53,101,137)" stroke-width="1" opacity="0.8666666666666667" d="M 751.5 883 L 753 886.5 L 752 886.5 L 751.5 883 Z " /><path fill="rgb(53,101,137)" stroke="rgb(53,101,137)" stroke-width="1" opacity="0.8666666666666667" d="M 921.5 883 L 926 884.5 L 924.5 885 L 921.5 884 L 921.5 883 Z " /><path fill="rgb(53,101,137)" stroke="rgb(53,101,137)" stroke-width="1" opacity="0.8666666666666667" d="M 221.5 884 L 222 892.5 L 221 892.5 L 221.5 884 Z " /><path fill="rgb(53,101,137)" stroke="rgb(53,101,137)" stroke-width="1" opacity="0.8666666666666667" d="M 822.5 884 L 823 885.5 L 821.5 888 L 821 886.5 L 822.5 884 Z " /><path fill="rgb(53,101,137)" stroke="rgb(53,101,137)" stroke-width="1" opacity="0.8666666666666667" d="M 342.5 885 L 353 894.5 L 344.5 887 L 342.5 885 Z " /><path fill="rgb(53,101,137)" stroke="rgb(53,101,137)" stroke-width="1" opacity="0.8666666666666667" d="M 927.5 885 L 938 893.5 L 931.5 888 Q 926.8 887.2 927.5 885 Z " /><path fill="rgb(53,101,137)" stroke="rgb(53,101,137)" stroke-width="1" opacity="0.8666666666666667" d="M 953.5 887 Q 960.3 892.2 960 904.5 L 959 904.5 Q 958.2 892.7 953.5 887 Z " /><path fill="rgb(53,101,137)" stroke="rgb(53,101,137)" stroke-width="1" opacity="0.8666666666666667" d="M 291 889 L 321.5 890 Q 331.8 892.8 337 900.5 L 362.5 949 L 379.5 949 L 380 947.5 L 363 913.5 L 364 913.5 L 381 947.5 L 381 950 L 361.5 950 L 361 948.5 L 340 906.5 L 328.5 894 L 321.5 891 Q 316 892.5 314.5 890 L 292.5 890 L 291 890.5 L 291 889 Z " /><path fill="rgb(53,101,137)" stroke="rgb(53,101,137)" stroke-width="1" opacity="0.8666666666666667" d="M 801.5 889 L 802 890.5 L 800.5 893 L 800 891.5 L 801.5 889 Z " /><path fill="rgb(53,101,137)" stroke="rgb(53,101,137)" stroke-width="1" opacity="0.8666666666666667" d="M 820.5 889 L 821 890.5 L 818.5 896 L 818 894.5 L 820.5 889 Z " /><path fill="rgb(53,101,137)" stroke="rgb(53,101,137)" stroke-width="1" opacity="0.8666666666666667" d="M 754.5 891 L 756 894.5 L 755 894.5 L 754.5 891 Z " /><path fill="rgb(53,101,137)" stroke="rgb(53,101,137)" stroke-width="1" opacity="0.8666666666666667" d="M 773.5 891 L 776 897.5 L 775 897.5 L 773.5 891 Z " /><path fill="rgb(53,101,137)" stroke="rgb(53,101,137)" stroke-width="1" opacity="0.8666666666666667" d="M 240.5 893 L 241 896.5 L 240 896.5 L 240.5 893 Z " /><path fill="rgb(53,101,137)" stroke="rgb(53,101,137)" stroke-width="1" opacity="0.8666666666666667" d="M 220.5 894 L 221 898.5 L 219.5 902 L 219 899.5 L 220.5 894 Z " /><path fill="rgb(53,101,137)" stroke="rgb(53,101,137)" stroke-width="1" opacity="0.8666666666666667" d="M 938.5 895 L 940 897.5 L 939 897.5 L 938.5 895 Z " /><path fill="rgb(53,101,137)" stroke="rgb(53,101,137)" stroke-width="1" opacity="0.8666666666666667" d="M 353.5 896 L 354.5 898 L 353.5 896 Z " /><path fill="rgb(53,101,137)" stroke="rgb(53,101,137)" stroke-width="1" opacity="0.8666666666666667" d="M 756.5 896 L 758 899.5 L 757 899.5 L 756.5 896 Z " /><path fill="rgb(53,101,137)" stroke="rgb(53,101,137)" stroke-width="1" opacity="0.8666666666666667" d="M 798.5 897 L 799 898.5 L 797.5 901 L 797 899.5 L 798.5 897 Z " /><path fill="rgb(53,101,137)" stroke="rgb(53,101,137)" stroke-width="1" opacity="0.8666666666666667" d="M 817.5 897 L 818 898.5 L 816.5 901 L 816 899.5 L 817.5 897 Z " /><path fill="rgb(53,101,137)" stroke="rgb(53,101,137)" stroke-width="1" opacity="0.8666666666666667" d="M 355.5 899 L 362 909.5 L 360 908.5 L 355.5 899 Z " /><path fill="rgb(53,101,137)" stroke="rgb(53,101,137)" stroke-width="1" opacity="0.8666666666666667" d="M 776.5 899 L 779 905.5 L 778 905.5 L 776.5 899 Z " /><path fill="rgb(53,101,137)" stroke="rgb(53,101,137)" stroke-width="1" opacity="0.8666666666666667" d="M 941.5 902 L 942 907.5 L 941 907.5 L 941.5 902 Z " /><path fill="rgb(53,101,137)" stroke="rgb(53,101,137)" stroke-width="1" opacity="0.8666666666666667" d="M 759.5 904 L 761 907.5 L 760 907.5 L 759.5 904 Z " /><path fill="rgb(53,101,137)" stroke="rgb(53,101,137)" stroke-width="1" opacity="0.8666666666666667" d="M 814.5 905 L 815 906.5 L 813.5 909 L 813 907.5 L 814.5 905 Z " /><path fill="rgb(53,101,137)" stroke="rgb(53,101,137)" stroke-width="1" opacity="0.8666666666666667" d="M 217.5 906 L 218 907.5 Q 213.5 918.5 204.5 925 L 194.5 930 L 194.5 929 Q 205.1 925.6 211 917.5 L 217.5 906 Z " /><path fill="rgb(53,101,137)" stroke="rgb(53,101,137)" stroke-width="1" opacity="0.8666666666666667" d="M 779.5 907 L 781 910.5 L 780 910.5 L 779.5 907 Z " /><path fill="rgb(53,101,137)" stroke="rgb(53,101,137)" stroke-width="1" opacity="0.8666666666666667" d="M 941.5 909 L 942 915.5 L 937.5 924 L 938 922.5 Q 941.7 917.7 941.5 909 Z " /><path fill="rgb(53,101,137)" stroke="rgb(53,101,137)" stroke-width="1" opacity="0.8666666666666667" d="M 812.5 910 L 813 911.5 L 810.5 917 L 810 915.5 L 812.5 910 Z " /><path fill="rgb(53,101,137)" stroke="rgb(53,101,137)" stroke-width="1" opacity="0.8666666666666667" d="M 762.5 912 L 764 915.5 L 763 915.5 L 762.5 912 Z " /><path fill="rgb(53,101,137)" stroke="rgb(53,101,137)" stroke-width="1" opacity="0.8666666666666667" d="M 959.5 914 L 960 918.5 L 959 918.5 L 959.5 914 Z " /><path fill="rgb(53,101,137)" stroke="rgb(53,101,137)" stroke-width="1" opacity="0.8666666666666667" d="M 234.5 915 L 235 916.5 L 232.5 920 L 233 918.5 L 234.5 915 Z " /><path fill="rgb(53,101,137)" stroke="rgb(53,101,137)" stroke-width="1" opacity="0.8666666666666667" d="M 809.5 918 L 810 919.5 L 807.5 925 L 807 923.5 L 809.5 918 Z " /><path fill="rgb(53,101,137)" stroke="rgb(53,101,137)" stroke-width="1" opacity="0.8666666666666667" d="M 958.5 920 L 959 922.5 L 957.5 925 L 957 923.5 L 958.5 920 Z " /><path fill="rgb(53,101,137)" stroke="rgb(53,101,137)" stroke-width="1" opacity="0.8666666666666667" d="M 230.5 923 L 227.5 927 L 230.5 923 Z " /><path fill="rgb(53,101,137)" stroke="rgb(53,101,137)" stroke-width="1" opacity="0.8666666666666667" d="M 767.5 925 L 769 928.5 L 768 928.5 L 767.5 925 Z " /><path fill="rgb(53,101,137)" stroke="rgb(53,101,137)" stroke-width="1" opacity="0.8666666666666667" d="M 936.5 925 L 932.5 930 L 930.5 931 L 931.5 929 L 936.5 925 Z " /><path fill="rgb(53,101,137)" stroke="rgb(53,101,137)" stroke-width="1" opacity="0.8666666666666667" d="M 806.5 926 L 807 927.5 L 805.5 930 L 805 928.5 L 806.5 926 Z " /><path fill="rgb(53,101,137)" stroke="rgb(53,101,137)" stroke-width="1" opacity="0.8666666666666667" d="M 956.5 926 L 957 927.5 L 947.5 940 Q 941.7 945.7 932.5 948 L 932.5 947 Q 944 943.5 951 935.5 L 956.5 926 Z " /><path fill="rgb(53,101,137)" stroke="rgb(53,101,137)" stroke-width="1" opacity="0.8666666666666667" d="M 868.5 927 L 878 931.5 L 876.5 932 L 868.5 928 L 868.5 927 Z " /><path fill="rgb(53,101,137)" stroke="rgb(53,101,137)" stroke-width="1" opacity="0.8666666666666667" d="M 226.5 928 L 222.5 933 L 226.5 928 Z " /><path fill="rgb(53,101,137)" stroke="rgb(53,101,137)" stroke-width="1" opacity="0.8666666666666667" d="M 804.5 931 L 805 932.5 L 802.5 938 L 802 936.5 L 804.5 931 Z " /><path fill="rgb(53,101,137)" stroke="rgb(53,101,137)" stroke-width="1" opacity="0.8666666666666667" d="M 928.5 931 L 927.5 933 L 926 932.5 L 928.5 931 Z " /><path fill="rgb(53,101,137)" stroke="rgb(53,101,137)" stroke-width="1" opacity="0.8666666666666667" d="M 183.5 932 L 187 932.5 L 183.5 933 L 183.5 932 Z " /><path fill="rgb(53,101,137)" stroke="rgb(53,101,137)" stroke-width="1" opacity="0.8666666666666667" d="M 176.5 933 L 181 933.5 L 176.5 934 L 176.5 933 Z " /><path fill="rgb(53,101,137)" stroke="rgb(53,101,137)" stroke-width="1" opacity="0.8666666666666667" d="M 220.5 933 L 218.5 936 L 213.5 939 L 214.5 937 L 220.5 933 Z " /><path fill="rgb(53,101,137)" stroke="rgb(53,101,137)" stroke-width="1" opacity="0.8666666666666667" d="M 770.5 933 L 772 936.5 L 771 936.5 L 770.5 933 Z " /><path fill="rgb(53,101,137)" stroke="rgb(53,101,137)" stroke-width="1" opacity="0.8666666666666667" d="M 882.5 933 L 889 934.5 L 885.5 935 L 882.5 934 L 882.5 933 Z " /><path fill="rgb(53,101,137)" stroke="rgb(53,101,137)" stroke-width="1" opacity="0.8666666666666667" d="M 891.5 935 L 895 935.5 L 891.5 936 L 891.5 935 Z " /><path fill="rgb(53,101,137)" stroke="rgb(53,101,137)" stroke-width="1" opacity="0.8666666666666667" d="M 914.5 935 L 918 935.5 L 914.5 936 L 914.5 935 Z " /><path fill="rgb(53,101,137)" stroke="rgb(53,101,137)" stroke-width="1" opacity="0.8666666666666667" d="M 899.5 936 L 912 936.5 L 899.5 937 L 899.5 936 Z " /><path fill="rgb(53,101,137)" stroke="rgb(53,101,137)" stroke-width="1" opacity="0.8666666666666667" d="M 211.5 939 L 210.5 941 L 209 940.5 L 211.5 939 Z " /><path fill="rgb(53,101,137)" stroke="rgb(53,101,137)" stroke-width="1" opacity="0.8666666666666667" d="M 801.5 939 L 802 940.5 L 800.5 943 L 800 941.5 L 801.5 939 Z " /><path fill="rgb(53,101,137)" stroke="rgb(53,101,137)" stroke-width="1" opacity="0.8666666666666667" d="M 206.5 941 L 208 941.5 L 201.5 944 L 201.5 943 L 206.5 941 Z " /><path fill="rgb(53,101,137)" stroke="rgb(53,101,137)" stroke-width="1" opacity="0.8666666666666667" d="M 799.5 944 L 800 945.5 L 797.5 950 L 777.5 950 L 775 947.5 L 775.5 946 L 777.5 949 L 797.5 949 L 798 946.5 L 799.5 944 Z " /><path fill="rgb(53,101,137)" stroke="rgb(53,101,137)" stroke-width="1" opacity="0.8666666666666667" d="M 194.5 945 L 197 945.5 L 194.5 946 L 194.5 945 Z " /><path fill="rgb(53,101,137)" stroke="rgb(53,101,137)" stroke-width="1" opacity="0.8666666666666667" d="M 190.5 946 L 193 946.5 L 190.5 947 L 190.5 946 Z " /><path fill="rgb(53,101,137)" stroke="rgb(53,101,137)" stroke-width="1" opacity="0.8666666666666667" d="M 872.5 946 L 875 946.5 L 872.5 947 L 872.5 946 Z " /><path fill="rgb(53,101,137)" stroke="rgb(53,101,137)" stroke-width="1" opacity="0.8666666666666667" d="M 183.5 947 L 188 947.5 L 183.5 948 L 183.5 947 Z " /><path fill="rgb(53,101,137)" stroke="rgb(53,101,137)" stroke-width="1" opacity="0.8666666666666667" d="M 174.5 948 L 181 948.5 L 174.5 949 L 174.5 948 Z " /><path fill="rgb(53,101,137)" stroke="rgb(53,101,137)" stroke-width="1" opacity="0.8666666666666667" d="M 879.5 948 L 882 948.5 L 879.5 949 L 879.5 948 Z " /><path fill="rgb(53,101,137)" stroke="rgb(53,101,137)" stroke-width="1" opacity="0.8666666666666667" d="M 124.5 949 L 165 949.5 L 124.5 950 L 124.5 949 Z " /><path fill="rgb(53,101,137)" stroke="rgb(53,101,137)" stroke-width="1" opacity="0.8666666666666667" d="M 571.5 949 L 658 949.5 L 571.5 950 L 571.5 949 Z " /><path fill="rgb(53,101,137)" stroke="rgb(53,101,137)" stroke-width="1" opacity="0.8666666666666667" d="M 883.5 949 L 887 949.5 L 883.5 950 L 883.5 949 Z " /><path fill="rgb(53,101,137)" stroke="rgb(53,101,137)" stroke-width="1" opacity="0.8666666666666667" d="M 924.5 949 L 928 949.5 L 918.5 951 L 918.5 950 Q 923.3 951.2 924.5 949 Z " /><path fill="rgb(53,101,137)" stroke="rgb(53,101,137)" stroke-width="1" opacity="0.8666666666666667" d="M 888.5 950 L 893 950.5 L 888.5 951 L 888.5 950 Z " /><path fill="rgb(53,101,137)" stroke="rgb(53,101,137)" stroke-width="1" opacity="0.8666666666666667" d="M 895.5 951 L 917 951.5 L 895.5 952 L 895.5 951 Z " /><path fill="rgb(254,212,58)" stroke="rgb(254,212,58)" stroke-width="1" opacity="0.996078431372549" d="M 568.5 81 Q 580.6 82.4 585.5 91 L 594.5 92 L 597.5 91 L 601.5 92 Q 603 89.5 604.5 93 L 625.5 94 L 627.5 94 Q 631.9 90.9 640.5 92 L 643.5 94 L 646.5 92 L 675.5 91 L 677 89.5 L 678 84 L 683.5 83 Q 684.8 85.3 689.5 84 L 691.5 84 L 693.5 84 L 699 89.5 Q 698.3 91.8 700.5 91 L 706 95.5 Q 707.1 104.1 701.5 106 Q 694.4 108.4 683.5 107 L 682.5 106 L 653.5 106 L 648.5 107 L 646 109.5 L 642 114.5 L 642 118.5 L 642 120.5 L 641 126.5 Q 645.6 129.8 646 136 L 665.5 137 L 666.5 136 L 689.5 136 L 690.5 137 L 711.5 138 L 716.5 140 Q 718 137.5 719.5 141 L 721.5 140 L 725.5 142 L 733 147.5 L 735 154.5 L 735 178.5 L 734 179.5 L 733 211.5 L 731 219.5 L 728.5 223 L 725 224 Q 726.1 226.7 723.5 226 L 711.5 231 L 669.5 232 L 668.5 231 L 654.5 231 L 646 233 L 641 243.5 L 624.5 262 L 596.5 287 L 590.5 289 L 580.5 289 L 573.5 291 L 560.5 292 L 548.5 296 L 544 296 L 540.5 302 L 531.5 305 L 527 309.5 L 517 325.5 Q 517 335 514 341.5 L 514 359.5 L 515 361.5 Q 511.9 373.9 503.5 381 L 496.5 382 L 492 378.5 L 492 376.5 L 498 369.5 L 500 359.5 L 499 357.5 L 503 348.5 L 503 338.5 L 501 331.5 L 502 328.5 L 502 326.5 L 501 323.5 L 502 321.5 L 498 308 L 496 308 Q 497.1 305.3 494.5 306 L 490.5 303 Q 478.4 304.6 471.5 301 L 452.5 301 L 449 303.5 L 445 298.5 L 443 290.5 L 443 271.5 Q 444.5 265 449.5 262 L 459.5 265 L 461.5 264 L 462.5 265 L 478.5 265 L 480.5 265 L 483.5 264 L 484.5 265 L 504.5 265 L 520.5 257 L 536.5 255 Q 544.7 251.7 549 244.5 Q 548.2 241.5 552 243 L 552 238.5 Q 557.8 233.8 556 221.5 L 555 220.5 L 555 159.5 L 554 158.5 L 554 144.5 L 552 135.5 L 552 113.5 L 553 112.5 L 553 102.5 L 549 97.5 L 551 90.5 L 553.5 88 Q 559.3 86.8 561.5 82 Q 567 83.5 568.5 81 Z " /><path fill="rgb(254,212,58)" stroke="rgb(254,212,58)" stroke-width="1" opacity="0.996078431372549" d="M 317.5 133 Q 325.3 130.3 323 137.5 L 324 138.5 L 324 169.5 L 323 170.5 L 323 206.5 L 326 217.5 L 326 224.5 L 325 225.5 L 325 232 L 318.5 232 L 311.5 226 L 306 225 L 304.5 222 L 302 220.5 L 297.5 215 L 288 210.5 L 287 203.5 L 288 200 L 266.5 195 L 261.5 195 L 258.5 196 L 256.5 194 L 246.5 192 L 244.5 193 L 246 190.5 L 243 187.5 L 242 184.5 Q 244.2 183.3 243 178.5 L 243 176.5 L 243 174.5 L 248.5 169 L 264.5 168 L 276.5 164 L 286 164 Q 285.3 155 291.5 152 L 297 152 L 297 149.5 L 304.5 140 L 317.5 133 Z " /><path fill="rgb(254,212,58)" stroke="rgb(254,212,58)" stroke-width="1" opacity="0.996078431372549" d="M 929.5 828 L 932.5 832 L 929.5 828 Z " /><path fill="rgb(254,212,58)" stroke="rgb(254,212,58)" stroke-width="1" opacity="0.996078431372549" d="M 933.5 833 L 936 837.5 L 935 837.5 L 933.5 833 Z " /><path fill="rgb(254,212,58)" stroke="rgb(254,212,58)" stroke-width="1" opacity="0.996078431372549" d="M 936.5 839 L 937 848.5 L 936 848.5 L 936.5 839 Z " /><path fill="rgb(254,212,58)" stroke="rgb(254,212,58)" stroke-width="1" opacity="0.996078431372549" d="M 890.5 868 L 891 880.5 L 890 880.5 L 890.5 868 Z " /><path fill="rgb(254,212,58)" stroke="rgb(254,212,58)" stroke-width="1" opacity="0.996078431372549" d="M 939.5 902 L 940 906.5 L 939 906.5 L 939.5 902 Z " /><path fill="rgb(254,212,58)" stroke="rgb(254,212,58)" stroke-width="1" opacity="0.996078431372549" d="M 939.5 909 L 940 914.5 L 939 914.5 L 939.5 909 Z " /><path fill="rgb(254,212,58)" stroke="rgb(254,212,58)" stroke-width="1" opacity="0.996078431372549" d="M 866.5 928 L 867 943.5 L 866 943.5 L 866.5 928 Z " /><path fill="rgb(0,0,0)" stroke="rgb(0,0,0)" stroke-width="1" opacity="0" d="M 0 0 L 1076 0 L 1076 1076 L 0 1076 L 0 0 Z M 575 66 L 573 68 L 577 69 Q 579 65 575 66 Z M 569 80 Q 567 83 562 81 Q 559 86 554 87 Q 550 89 550 95 L 539 92 L 523 92 L 514 96 L 507 104 L 491 104 L 488 102 Q 481 103 478 101 L 476 101 L 473 102 L 472 101 L 458 101 L 457 100 L 450 100 Q 446 103 440 102 L 432 105 Q 425 108 426 117 L 423 118 L 401 118 L 390 120 L 355 120 L 340 123 L 333 127 L 328 127 L 324 132 L 318 132 L 305 139 L 297 149 L 297 151 L 292 151 Q 285 154 286 163 L 277 163 L 265 167 L 249 168 Q 243 170 242 177 L 243 180 L 242 184 Q 241 189 245 191 L 243 194 L 247 193 L 257 195 L 260 198 Q 261 194 263 197 L 266 196 Q 268 195 267 198 L 271 197 L 274 199 L 276 198 Q 277 201 283 200 L 285 200 L 288 201 L 287 203 L 288 212 L 298 216 L 301 221 L 307 226 L 310 226 Q 313 231 321 233 L 323 232 Q 326 234 326 239 L 336 243 L 355 244 L 356 245 L 367 245 L 377 243 L 380 244 L 382 244 L 384 243 L 385 244 L 412 245 L 427 250 L 430 255 Q 436 261 448 263 Q 443 265 442 272 L 442 291 L 444 299 L 449 305 L 447 308 L 449 313 L 453 315 L 458 325 L 461 339 L 460 355 L 455 369 Q 456 376 462 379 L 473 379 L 474 378 L 484 378 L 485 377 Q 491 376 490 379 L 496 383 Q 500 384 502 382 L 505 383 Q 508 382 507 385 L 512 388 Q 523 386 528 391 L 532 396 L 536 409 L 541 449 L 546 463 L 550 484 L 562 508 L 563 524 L 565 529 L 562 543 L 562 561 L 560 564 L 558 566 L 548 566 L 545 568 L 537 569 Q 532 571 536 574 L 535 577 L 538 589 L 534 588 L 524 591 L 516 591 L 515 590 L 479 590 L 467 587 L 455 574 L 452 575 L 446 582 Q 445 592 447 599 L 457 623 L 457 626 L 468 642 L 476 649 Q 478 648 477 651 L 484 655 L 510 655 L 511 656 L 532 656 L 533 655 L 563 655 L 569 657 L 573 655 Q 579 653 581 656 L 583 655 L 586 656 L 588 656 L 646 656 L 647 655 Q 652 653 651 657 Q 660 658 666 654 Q 668 655 667 652 L 673 650 L 682 637 L 683 627 L 685 621 L 688 619 L 695 607 L 690 588 L 677 569 L 677 552 L 676 551 L 676 512 L 677 511 L 677 483 L 676 482 L 677 477 L 676 474 Q 675 469 677 468 L 673 443 L 670 441 L 671 437 L 665 411 L 657 385 L 655 367 L 654 366 L 654 359 L 654 357 L 653 355 L 654 329 Q 659 325 659 318 L 659 316 Q 661 314 660 310 L 663 306 L 671 300 L 680 297 Q 685 299 687 296 L 711 296 L 722 292 L 725 289 Q 724 286 727 287 Q 731 284 732 279 L 731 272 L 731 270 L 728 258 L 735 252 L 740 245 L 739 243 L 741 241 L 741 236 L 743 230 L 747 226 L 746 225 L 748 222 L 748 213 L 750 204 Q 747 200 749 192 L 748 191 L 748 161 L 747 160 Q 747 154 750 153 L 750 148 L 742 139 L 741 125 Q 737 123 740 122 L 733 113 L 731 105 L 727 101 L 725 99 Q 723 93 717 92 Q 709 91 707 94 L 694 83 L 691 82 L 689 83 L 684 82 L 677 84 L 676 90 L 655 90 L 645 92 Q 643 95 642 91 Q 632 90 628 93 L 625 87 L 617 84 L 606 85 L 602 91 L 598 90 L 595 91 L 588 91 L 579 83 L 573 80 L 569 80 Z M 898 806 L 897 807 L 887 807 L 852 815 L 850 815 L 852 808 L 829 808 L 778 821 L 774 836 L 770 843 L 769 849 L 764 861 L 758 850 L 743 808 L 721 808 L 690 820 L 689 823 L 692 828 Q 694 837 698 844 L 698 847 L 705 862 L 706 868 L 710 875 L 714 889 L 719 899 L 733 937 L 749 943 L 753 943 L 776 951 L 797 951 L 799 950 L 809 924 L 809 934 L 817 937 L 829 940 L 838 941 L 861 947 L 866 947 L 880 951 L 896 952 L 897 953 L 917 953 L 928 951 Q 940 948 948 941 Q 958 933 961 919 L 961 901 Q 959 891 954 886 Q 947 877 936 874 L 949 866 Q 948 863 951 864 Q 956 858 958 849 Q 959 838 957 832 L 951 821 Q 935 802 898 806 Z M 123 808 L 123 950 L 126 951 L 185 950 L 256 936 L 272 930 L 272 950 L 274 951 L 292 951 L 297 950 L 300 948 L 304 948 L 307 946 L 337 938 L 338 936 L 339 906 L 359 948 L 363 951 L 383 951 L 405 941 L 405 949 L 407 950 L 427 950 L 445 939 L 447 937 L 447 820 L 427 808 L 405 808 L 405 922 L 391 896 L 382 884 L 379 884 L 385 879 L 387 879 L 392 873 L 396 862 L 396 847 L 388 831 L 377 823 L 348 813 L 332 809 L 323 809 L 322 808 L 272 808 L 272 829 L 268 826 Q 261 826 259 823 L 194 810 L 173 809 L 172 808 L 123 808 Z M 463 808 L 463 950 L 465 951 L 551 951 L 551 929 L 550 928 Q 550 923 550 923 L 494 923 L 494 821 L 486 811 L 484 808 L 463 808 Z M 570 808 L 565 822 L 565 938 L 570 950 L 571 951 L 658 951 L 659 950 L 659 934 L 638 923 L 591 923 L 591 809 L 591 808 L 570 808 Z " /><path fill="rgb(0,0,0)" stroke="rgb(0,0,0)" stroke-width="1" opacity="0" d="M 843.5 834 L 853.5 834 L 863 840.5 Q 867 845 866 854.5 Q 864.2 861.7 858.5 865 L 851.5 867 L 830 868 L 841 837.5 L 843.5 834 Z " /><path fill="rgb(0,0,0)" stroke="rgb(0,0,0)" stroke-width="1" opacity="0" d="M 338.5 835 Q 344.2 841.8 342 856.5 L 338.5 864 L 338.5 835 Z " /><path fill="rgb(0,0,0)" stroke="rgb(0,0,0)" stroke-width="1" opacity="0" d="M 215.5 849 L 218 854.5 L 221 868.5 L 221 889.5 L 219 900.5 L 215.5 908 L 215.5 849 Z " /><path fill="rgb(0,0,0)" stroke="rgb(0,0,0)" stroke-width="1" opacity="0" d="M 827.5 874 L 828 882 L 830.5 883 L 851.5 883 Q 861.4 885.1 866 892.5 Q 870.5 897 869 907.5 Q 866.5 916.5 859.5 921 Q 855.5 924 847.5 923 L 839.5 921 L 837.5 921 L 830.5 921 L 823.5 919 L 821.5 919 L 811 918 L 827.5 874 Z " /><path fill="rgb(47,104,152)" stroke="rgb(47,104,152)" stroke-width="1" opacity="0.996078431372549" d="M 612.5 85 Q 621.6 85.4 625 91.5 L 624.5 94 L 612.5 94 L 611.5 93 L 604 93 Q 603.2 88 606.5 86 Q 611.3 87.2 612.5 85 Z " /><path fill="rgb(47,104,152)" stroke="rgb(47,104,152)" stroke-width="1" opacity="0.996078431372549" d="M 523.5 93 L 538.5 93 L 546.5 95 L 552 100.5 Q 554.7 104.3 553 112.5 L 552 113.5 L 552 135.5 L 553 136.5 L 554 158.5 L 555 159.5 L 555 220.5 L 556 221.5 L 556 231.5 L 552 238.5 L 552 243 Q 548.2 241.5 549 244.5 Q 544.7 251.7 536.5 255 L 520.5 257 L 504.5 265 L 484.5 265 L 482.5 265 L 479.5 264 L 478.5 265 L 462.5 265 L 460.5 264 L 458.5 265 L 439.5 260 L 431 254.5 L 427.5 250 L 412.5 245 L 388.5 244 L 386.5 243 L 384.5 243 Q 379.8 241.7 378.5 244 L 375.5 243 L 365.5 245 L 356.5 245 L 355.5 244 L 336.5 243 L 328.5 240 L 326 237.5 Q 323.3 233.7 325 225.5 Q 327.8 223.8 326 217.5 L 323 206.5 L 323 170.5 L 324 169.5 L 324 138.5 L 323 133.5 L 327.5 128 L 332.5 128 L 339.5 124 L 354.5 121 L 389.5 121 L 400.5 119 L 422.5 119 L 427 118 Q 425.4 108.8 431.5 106 L 439.5 103 Q 446.2 103.7 449.5 101 L 456.5 101 L 457.5 102 L 471.5 102 L 473.5 103 L 475.5 102 L 477.5 103 L 479.5 103 Q 485.8 102.2 488.5 105 L 507.5 105 L 514.5 97 L 523.5 93 Z " /><path fill="rgb(47,104,152)" stroke="rgb(47,104,152)" stroke-width="1" opacity="0.996078431372549" d="M 709.5 93 Q 720.8 91.7 724 98.5 L 726.5 102 L 730 104.5 Q 733 107.8 732 114 L 736 116.5 L 741 125.5 L 742 139.5 L 749 147.5 L 749 152.5 Q 744.5 154 746 161.5 L 747 162.5 L 747 190.5 L 748 191.5 Q 746.3 199.7 749 203.5 L 747 212.5 L 747 221.5 L 739 235.5 Q 740.3 247.8 733.5 252 L 728 255.5 L 727 261.5 L 730 269.5 L 729 271.5 Q 732 273.5 731 279.5 L 726.5 286 L 720.5 291 L 713.5 294 L 709.5 295 L 685.5 295 Q 684 297.5 678.5 296 L 669.5 299 L 662 304.5 L 659 308.5 L 657 322.5 L 653 327.5 L 652 354.5 L 652 356.5 L 656 384.5 L 668 427.5 L 669 442 L 672 443.5 Q 674.5 447 673 454.5 L 676 467.5 L 675 468.5 L 675 490.5 L 676 495.5 L 675 496.5 L 675 550.5 L 676 551.5 L 676 568.5 L 684 578.5 L 689 588.5 L 691 599.5 L 694 605.5 L 687 618 L 684 619.5 L 682 625.5 L 681 635.5 L 671.5 649 L 666 651 Q 667.1 653.7 664.5 653 Q 659.7 656.4 652 656 Q 653.1 652.5 645.5 654 L 644.5 655 L 587.5 655 L 585.5 654 L 583.5 655 L 581.5 654 L 579.5 654 L 563.5 655 L 562.5 654 L 532.5 654 L 531.5 655 L 510.5 655 Q 506.2 651.3 496.5 653 L 495.5 654 L 483.5 654 L 478 651 Q 479.7 646.9 475.5 648 Q 467 641.8 464 631 L 460 628.5 L 458 623.5 L 458 621.5 L 448 598.5 Q 445.7 591.8 447 581.5 L 452.5 575 L 454.5 575 L 464 584.5 L 465 588 L 472.5 590 L 513.5 590 L 514.5 591 L 523.5 591 L 533.5 588 L 538.5 589 L 538 587.5 L 535 576.5 L 536 572.5 L 535 570.5 Q 536.8 567.3 543.5 569 L 547.5 566 L 557.5 566 L 560 563.5 L 562 560.5 L 562 542.5 L 565 528.5 Q 561.4 523.1 563 512.5 L 563 510.5 L 550 483.5 L 546 461.5 L 541 447.5 L 540 433.5 L 539 432.5 L 539 422.5 L 532 393 L 524.5 388 Q 519.7 385.7 511.5 387 L 508 383.5 Q 508.8 381.3 506.5 382 L 505 379.5 Q 512.6 372.6 515 360.5 L 514 359.5 L 514 341.5 Q 517 335 517 325.5 Q 522.5 313.5 531.5 305 Q 539.3 304.3 543 299.5 L 544 296 L 548.5 296 L 560.5 292 L 573.5 291 L 580.5 289 L 590.5 289 L 596.5 287 L 629 257.5 L 641 243.5 L 646 233 L 654.5 231 L 668.5 231 L 669.5 232 L 693.5 232 L 694.5 231 L 711.5 231 L 725 226 Q 723.9 223.3 726.5 224 L 730 221.5 L 733 211.5 L 733 201.5 L 734 200.5 L 735 154.5 L 734 149.5 L 731.5 146 L 724.5 141 L 720.5 141 L 717.5 139 L 715.5 139 L 702.5 138 L 701.5 137 L 690.5 137 L 689.5 136 L 666.5 136 L 665.5 137 L 654.5 137 L 653.5 136 L 646 136 Q 645.6 129.8 641 126.5 L 641 123.5 L 643 119.5 L 642 114.5 L 648.5 107 L 653.5 106 L 682.5 106 L 683.5 107 L 697.5 107 L 701.5 106 L 705 102.5 L 706 95.5 L 707.5 94 L 709.5 93 Z " /><path fill="rgb(47,104,152)" stroke="rgb(47,104,152)" stroke-width="1" opacity="0.996078431372549" d="M 452.5 301 L 471.5 301 Q 478.4 304.6 490.5 303 L 496 306 L 496 308 Q 498.7 306.9 498 309.5 L 502 322.5 L 502 324.5 L 501 327.5 L 502 330.5 L 502 332.5 L 503 348.5 L 499 358.5 L 499 360.5 L 498 369.5 L 492.5 376 L 490.5 375 L 483.5 377 L 467.5 377 L 462.5 378 Q 457.5 375 456 368.5 L 461 354.5 L 462 337.5 L 459 323.5 L 453.5 314 L 450 311.5 L 449 305.5 L 452.5 301 Z " /><path fill="rgb(47,104,152)" stroke="rgb(47,104,152)" stroke-width="1" opacity="0.996078431372549" d="M 896.5 807 L 922.5 807 Q 937.6 810.1 947 818 L 952 824.5 L 956 834.5 L 956 849.5 L 950 863 L 941.5 869 L 931 873.5 Q 945.1 876.9 953 886.5 Q 960.7 895.8 960 913.5 L 957 925.5 L 948.5 938 Q 940.5 945.5 928.5 949 L 917.5 951 L 893.5 951 L 868 945 L 868 928.5 L 869.5 928 L 885.5 935 L 898.5 936 L 899.5 937 L 911.5 937 L 927.5 933 L 937 925.5 Q 944.2 918.7 942 902.5 Q 939.3 892.3 931.5 887 L 923.5 883 L 913.5 881 L 893 881 L 893 867 L 915.5 867 Q 916.7 864.8 921.5 866 L 930.5 862 L 936 856.5 Q 940.4 851.4 939 840.5 Q 937.3 831.3 930.5 827 Q 919.6 819.4 898.5 822 L 873 828 L 873 812.5 L 875.5 812 L 896.5 807 Z " /><path fill="rgb(47,104,152)" stroke="rgb(47,104,152)" stroke-width="1" opacity="0.996078431372549" d="M 124 809 L 172.5 809 L 173.5 810 L 189.5 811 L 208.5 817 L 224 827.5 Q 223.3 829.8 225.5 829 L 231 835.5 L 239 854.5 L 241 865.5 L 241 892.5 L 237 910.5 Q 231.9 924.4 221.5 933 Q 208.7 943.2 189.5 947 L 174.5 948 L 173.5 949 L 124 949 L 124 809 Z M 142 824 L 142 934 L 144 935 L 173 935 Q 174 932 181 934 L 196 930 L 205 925 L 215 914 L 221 899 Q 220 894 222 893 L 222 866 L 218 851 L 213 842 Q 204 830 188 826 L 176 825 L 175 824 L 142 824 Z " /><path fill="rgb(47,104,152)" stroke="rgb(47,104,152)" stroke-width="1" opacity="0.996078431372549" d="M 273 809 L 322.5 809 Q 324.2 811.7 330.5 810 L 343.5 814 L 356 824.5 L 362 839.5 L 362 857.5 Q 359.7 868.3 354 875 L 339 883.5 L 353 895.5 L 362 910.5 L 380 949 L 362.5 949 L 361 947.5 L 341 906.5 L 330.5 894 L 321.5 890 Q 316 891.5 314.5 889 L 291 889 L 291 948.5 L 290.5 949 L 273 949 L 273 809 Z M 291 824 L 291 875 L 322 875 L 330 873 L 337 869 L 342 861 L 344 852 L 343 841 L 341 836 Q 336 828 327 825 L 322 824 L 291 824 Z " /><path fill="rgb(47,104,152)" stroke="rgb(47,104,152)" stroke-width="1" opacity="0.996078431372549" d="M 407 809 L 424.5 809 L 425 809.5 L 425 949 L 407.5 949 L 407 948.5 L 407 809 Z " /><path fill="rgb(47,104,152)" stroke="rgb(47,104,152)" stroke-width="1" opacity="0.996078431372549" d="M 464 809 L 481.5 809 L 482 809.5 L 482 934 L 549.5 934 L 550 934.5 L 550 949 L 464 949 L 464 809 Z " /><path fill="rgb(47,104,152)" stroke="rgb(47,104,152)" stroke-width="1" opacity="0.996078431372549" d="M 571 809 L 588.5 809 L 589 809.5 L 589 932.5 L 590.5 934 L 658 934 L 658 948.5 L 657.5 949 L 571 949 L 571 809 Z " /><path fill="rgb(47,104,152)" stroke="rgb(47,104,152)" stroke-width="1" opacity="0.996078431372549" d="M 724 809 L 741.5 809 L 742 810.5 L 786 927 Q 788.7 928.1 788 925.5 L 832 809 L 851 809.5 L 798 949 L 777.5 949 L 776 947.5 L 724 809 Z " /><path fill="rgb(55,61,44)" stroke="rgb(55,61,44)" stroke-width="1" opacity="0.2549019607843137" d="M 574.5 66 L 577 66.5 L 574.5 67 L 574.5 66 Z " /><path fill="rgb(55,61,44)" stroke="rgb(55,61,44)" stroke-width="1" opacity="0.2549019607843137" d="M 568.5 80 Q 580.3 81.3 585 89.5 L 578.5 84 L 572.5 81 L 568.5 81 Q 567 83.5 561.5 82 L 551.5 90 L 553.5 87 Q 559.3 85.8 561.5 81 Q 567 82.5 568.5 80 Z " /><path fill="rgb(55,61,44)" stroke="rgb(55,61,44)" stroke-width="1" opacity="0.2549019607843137" d="M 689.5 82 L 691 82.5 L 685.5 84 L 685.5 83 L 689.5 82 Z " /><path fill="rgb(55,61,44)" stroke="rgb(55,61,44)" stroke-width="1" opacity="0.2549019607843137" d="M 608.5 84 L 611 84.5 L 608.5 85 L 608.5 84 Z " /><path fill="rgb(55,61,44)" stroke="rgb(55,61,44)" stroke-width="1" opacity="0.2549019607843137" d="M 605.5 85 L 607 85.5 L 604.5 87 L 605.5 85 Z " /><path fill="rgb(55,61,44)" stroke="rgb(55,61,44)" stroke-width="1" opacity="0.2549019607843137" d="M 699.5 89 L 700.5 91 L 699.5 89 Z " /><path fill="rgb(55,61,44)" stroke="rgb(55,61,44)" stroke-width="1" opacity="0.2549019607843137" d="M 595.5 90 L 601.5 91 L 603 90.5 Q 602.3 92.8 598.5 92 L 595.5 91 L 595.5 90 Z " /><path fill="rgb(55,61,44)" stroke="rgb(55,61,44)" stroke-width="1" opacity="0.2549019607843137" d="M 654.5 90 L 675 90.5 L 654.5 91 L 654.5 90 Z " /><path fill="rgb(55,61,44)" stroke="rgb(55,61,44)" stroke-width="1" opacity="0.2549019607843137" d="M 589.5 91 L 594 91.5 L 589.5 92 L 589.5 91 Z " /><path fill="rgb(55,61,44)" stroke="rgb(55,61,44)" stroke-width="1" opacity="0.2549019607843137" d="M 632.5 91 L 641.5 91 L 643 92.5 L 641.5 92 L 632.5 92 L 632.5 91 Z " /><path fill="rgb(55,61,44)" stroke="rgb(55,61,44)" stroke-width="1" opacity="0.2549019607843137" d="M 646.5 91 L 653 91.5 L 646.5 92 L 646.5 91 Z " /><path fill="rgb(55,61,44)" stroke="rgb(55,61,44)" stroke-width="1" opacity="0.2549019607843137" d="M 522.5 92 L 538.5 92 L 550 95.5 L 547.5 96 Q 538.5 91 522.5 93 L 513.5 97 L 508.5 102 L 513.5 96 L 522.5 92 Z " /><path fill="rgb(55,61,44)" stroke="rgb(55,61,44)" stroke-width="1" opacity="0.2549019607843137" d="M 709.5 92 Q 721.8 90.8 725 98.5 L 726.5 101 L 731 104.5 L 732 107.5 L 731 107.5 L 727.5 102 L 724 99.5 L 719.5 94 L 709.5 93 L 709.5 92 Z " /><path fill="rgb(55,61,44)" stroke="rgb(55,61,44)" stroke-width="1" opacity="0.2549019607843137" d="M 449.5 100 L 471.5 101 L 472.5 102 L 475.5 101 L 477.5 101 Q 480.7 103.3 487.5 102 L 490.5 104 L 506.5 104 L 508 103.5 L 506.5 105 L 490.5 105 L 487.5 103 Q 480.7 104.3 477.5 102 L 475.5 102 L 472.5 103 L 471.5 102 L 449.5 101 L 449.5 100 Z " /><path fill="rgb(55,61,44)" stroke="rgb(55,61,44)" stroke-width="1" opacity="0.2549019607843137" d="M 445.5 101 L 448 101.5 L 445.5 102 L 445.5 101 Z " /><path fill="rgb(55,61,44)" stroke="rgb(55,61,44)" stroke-width="1" opacity="0.2549019607843137" d="M 439.5 102 L 444 102.5 L 439.5 103 L 439.5 102 Z " /><path fill="rgb(55,61,44)" stroke="rgb(55,61,44)" stroke-width="1" opacity="0.2549019607843137" d="M 732.5 109 L 733 112.5 L 738 118.5 L 736 117.5 L 733.5 114 Q 730.6 114.4 732.5 109 Z " /><path fill="rgb(55,61,44)" stroke="rgb(55,61,44)" stroke-width="1" opacity="0.2549019607843137" d="M 426.5 111 L 427 116.5 L 423.5 118 L 423.5 117 L 426 117 L 426.5 111 Z " /><path fill="rgb(55,61,44)" stroke="rgb(55,61,44)" stroke-width="1" opacity="0.2549019607843137" d="M 400.5 118 L 422 118.5 L 400.5 119 L 400.5 118 Z " /><path fill="rgb(55,61,44)" stroke="rgb(55,61,44)" stroke-width="1" opacity="0.2549019607843137" d="M 390.5 119 L 399 119.5 L 390.5 120 L 390.5 119 Z " /><path fill="rgb(55,61,44)" stroke="rgb(55,61,44)" stroke-width="1" opacity="0.2549019607843137" d="M 354.5 120 L 389 120.5 L 354.5 121 L 339.5 124 L 332.5 128 L 327.5 128 L 324.5 131 L 327.5 127 L 332.5 127 L 339.5 123 L 354.5 120 Z " /><path fill="rgb(55,61,44)" stroke="rgb(55,61,44)" stroke-width="1" opacity="0.2549019607843137" d="M 738.5 120 L 739.5 122 L 738.5 120 Z " /><path fill="rgb(55,61,44)" stroke="rgb(55,61,44)" stroke-width="1" opacity="0.2549019607843137" d="M 739.5 123 L 740.5 125 L 739.5 123 Z " /><path fill="rgb(55,61,44)" stroke="rgb(55,61,44)" stroke-width="1" opacity="0.2549019607843137" d="M 742.5 139 L 745.5 143 L 742.5 139 Z " /><path fill="rgb(55,61,44)" stroke="rgb(55,61,44)" stroke-width="1" opacity="0.2549019607843137" d="M 749.5 147 L 750 152.5 L 748 153.5 L 749.5 147 Z " /><path fill="rgb(55,61,44)" stroke="rgb(55,61,44)" stroke-width="1" opacity="0.2549019607843137" d="M 747.5 160 L 748 189.5 L 747 189.5 L 747.5 160 Z " /><path fill="rgb(55,61,44)" stroke="rgb(55,61,44)" stroke-width="1" opacity="0.2549019607843137" d="M 243.5 188 L 244.5 190 L 243.5 188 Z " /><path fill="rgb(55,61,44)" stroke="rgb(55,61,44)" stroke-width="1" opacity="0.2549019607843137" d="M 748.5 191 L 749 200.5 L 748 200.5 L 748.5 191 Z " /><path fill="rgb(55,61,44)" stroke="rgb(55,61,44)" stroke-width="1" opacity="0.2549019607843137" d="M 246.5 192 L 256.5 194 L 259.5 197 Q 261 193.5 262.5 196 L 265 196.5 L 262.5 197 Q 261 194.5 259.5 198 L 256.5 195 L 246.5 193 L 243.5 194 L 243.5 193 L 246.5 192 Z " /><path fill="rgb(55,61,44)" stroke="rgb(55,61,44)" stroke-width="1" opacity="0.2549019607843137" d="M 267.5 197 L 270 197.5 L 267.5 198 L 267.5 197 Z " /><path fill="rgb(55,61,44)" stroke="rgb(55,61,44)" stroke-width="1" opacity="0.2549019607843137" d="M 272.5 197 L 275 198.5 L 273.5 199 L 272.5 197 Z " /><path fill="rgb(55,61,44)" stroke="rgb(55,61,44)" stroke-width="1" opacity="0.2549019607843137" d="M 277.5 198 L 284 200.5 L 282.5 200 Q 277 201 277.5 198 Z " /><path fill="rgb(55,61,44)" stroke="rgb(55,61,44)" stroke-width="1" opacity="0.2549019607843137" d="M 749.5 202 L 750 203.5 L 748 212.5 L 748 221.5 L 746.5 223 L 747 221.5 L 748 204.5 L 749.5 202 Z " /><path fill="rgb(55,61,44)" stroke="rgb(55,61,44)" stroke-width="1" opacity="0.2549019607843137" d="M 288.5 211 L 297.5 215 L 301 218.5 L 297.5 216 L 289.5 213 L 288.5 211 Z " /><path fill="rgb(55,61,44)" stroke="rgb(55,61,44)" stroke-width="1" opacity="0.2549019607843137" d="M 301.5 220 L 306.5 226 L 301.5 220 Z " /><path fill="rgb(55,61,44)" stroke="rgb(55,61,44)" stroke-width="1" opacity="0.2549019607843137" d="M 746.5 225 L 743.5 229 L 746.5 225 Z " /><path fill="rgb(55,61,44)" stroke="rgb(55,61,44)" stroke-width="1" opacity="0.2549019607843137" d="M 310.5 226 L 311.5 228 L 310.5 226 Z " /><path fill="rgb(55,61,44)" stroke="rgb(55,61,44)" stroke-width="1" opacity="0.2549019607843137" d="M 313.5 228 L 315.5 231 L 313.5 228 Z " /><path fill="rgb(55,61,44)" stroke="rgb(55,61,44)" stroke-width="1" opacity="0.2549019607843137" d="M 323.5 232 L 324.5 234 L 323.5 232 Z " /><path fill="rgb(55,61,44)" stroke="rgb(55,61,44)" stroke-width="1" opacity="0.2549019607843137" d="M 741.5 232 L 742 234.5 Q 739.8 235.8 741 240.5 L 739.5 242 L 740 240.5 Q 739.3 234.8 741.5 232 Z " /><path fill="rgb(55,61,44)" stroke="rgb(55,61,44)" stroke-width="1" opacity="0.2549019607843137" d="M 326.5 238 L 327.5 240 L 326.5 238 Z " /><path fill="rgb(55,61,44)" stroke="rgb(55,61,44)" stroke-width="1" opacity="0.2549019607843137" d="M 739.5 243 L 740 244.5 L 734.5 252 L 737 248.5 L 739.5 243 Z " /><path fill="rgb(55,61,44)" stroke="rgb(55,61,44)" stroke-width="1" opacity="0.2549019607843137" d="M 427.5 250 L 432 255.5 L 430 254.5 L 427.5 250 Z " /><path fill="rgb(55,61,44)" stroke="rgb(55,61,44)" stroke-width="1" opacity="0.2549019607843137" d="M 732.5 252 L 728 257.5 L 731 269.5 L 731 271.5 L 732 278.5 L 731 278.5 Q 732 272.5 729 270.5 L 730 268.5 Q 727 264.5 727 257.5 L 732.5 252 Z " /><path fill="rgb(55,61,44)" stroke="rgb(55,61,44)" stroke-width="1" opacity="0.2549019607843137" d="M 433.5 256 L 434.5 258 L 433.5 256 Z " /><path fill="rgb(55,61,44)" stroke="rgb(55,61,44)" stroke-width="1" opacity="0.2549019607843137" d="M 729.5 283 L 726.5 287 L 729.5 283 Z " /><path fill="rgb(55,61,44)" stroke="rgb(55,61,44)" stroke-width="1" opacity="0.2549019607843137" d="M 724.5 288 L 721.5 292 L 724.5 288 Z " /><path fill="rgb(55,61,44)" stroke="rgb(55,61,44)" stroke-width="1" opacity="0.2549019607843137" d="M 669.5 300 L 668.5 302 L 669.5 300 Z " /><path fill="rgb(55,61,44)" stroke="rgb(55,61,44)" stroke-width="1" opacity="0.2549019607843137" d="M 666.5 302 L 665.5 304 L 666.5 302 Z " /><path fill="rgb(55,61,44)" stroke="rgb(55,61,44)" stroke-width="1" opacity="0.2549019607843137" d="M 663.5 304 L 663 305.5 L 660 309.5 Q 661.3 314.3 659 315.5 L 659 317.5 Q 658.9 325.4 654 328.5 L 652.5 354 L 652 340.5 L 653 339.5 L 653 328.5 L 656 325.5 L 659 316.5 L 659 314.5 L 659 309.5 L 663.5 304 Z " /><path fill="rgb(55,61,44)" stroke="rgb(55,61,44)" stroke-width="1" opacity="0.2549019607843137" d="M 448.5 309 L 452 314.5 L 449 312.5 L 448.5 309 Z " /><path fill="rgb(55,61,44)" stroke="rgb(55,61,44)" stroke-width="1" opacity="0.2549019607843137" d="M 653.5 358 L 654 364.5 L 653 364.5 L 653.5 358 Z " /><path fill="rgb(55,61,44)" stroke="rgb(55,61,44)" stroke-width="1" opacity="0.2549019607843137" d="M 654.5 366 L 655 371.5 L 654 371.5 L 654.5 366 Z " /><path fill="rgb(55,61,44)" stroke="rgb(55,61,44)" stroke-width="1" opacity="0.2549019607843137" d="M 655.5 373 L 656 377.5 L 655 377.5 L 655.5 373 Z " /><path fill="rgb(55,61,44)" stroke="rgb(55,61,44)" stroke-width="1" opacity="0.2549019607843137" d="M 457.5 374 L 461.5 378 L 473 378.5 L 461.5 379 L 457.5 374 Z " /><path fill="rgb(55,61,44)" stroke="rgb(55,61,44)" stroke-width="1" opacity="0.2549019607843137" d="M 485.5 376 L 490 376.5 L 485.5 377 L 485.5 376 Z " /><path fill="rgb(55,61,44)" stroke="rgb(55,61,44)" stroke-width="1" opacity="0.2549019607843137" d="M 474.5 377 L 484 377.5 L 474.5 378 L 474.5 377 Z " /><path fill="rgb(55,61,44)" stroke="rgb(55,61,44)" stroke-width="1" opacity="0.2549019607843137" d="M 490.5 378 L 497 382.5 L 495.5 383 L 490.5 378 Z " /><path fill="rgb(55,61,44)" stroke="rgb(55,61,44)" stroke-width="1" opacity="0.2549019607843137" d="M 656.5 379 L 657 383.5 L 656 383.5 L 656.5 379 Z " /><path fill="rgb(55,61,44)" stroke="rgb(55,61,44)" stroke-width="1" opacity="0.2549019607843137" d="M 503.5 381 L 507 382.5 L 504.5 383 L 503.5 381 Z " /><path fill="rgb(55,61,44)" stroke="rgb(55,61,44)" stroke-width="1" opacity="0.2549019607843137" d="M 507.5 384 L 511.5 387 Q 519.7 385.7 524.5 388 L 532 394.5 L 527.5 391 Q 522.7 386.3 511.5 388 L 507.5 384 Z " /><path fill="rgb(55,61,44)" stroke="rgb(55,61,44)" stroke-width="1" opacity="0.2549019607843137" d="M 657.5 385 L 658 387.5 L 657 387.5 L 657.5 385 Z " /><path fill="rgb(55,61,44)" stroke="rgb(55,61,44)" stroke-width="1" opacity="0.2549019607843137" d="M 659.5 392 L 660 395.5 L 659 395.5 L 659.5 392 Z " /><path fill="rgb(55,61,44)" stroke="rgb(55,61,44)" stroke-width="1" opacity="0.2549019607843137" d="M 660.5 397 L 661 399.5 L 660 399.5 L 660.5 397 Z " /><path fill="rgb(55,61,44)" stroke="rgb(55,61,44)" stroke-width="1" opacity="0.2549019607843137" d="M 663.5 407 L 671 436.5 L 670 436.5 L 663 409.5 L 663.5 407 Z " /><path fill="rgb(55,61,44)" stroke="rgb(55,61,44)" stroke-width="1" opacity="0.2549019607843137" d="M 669.5 438 L 670 441 L 673 442.5 L 677 467.5 Q 674.7 468.8 676 473.5 L 677 476.5 L 676 481.5 L 677 482.5 L 677 510.5 L 676 511.5 L 676 550.5 L 677 551.5 L 677 568.5 L 690 587.5 L 695 606.5 L 687.5 619 L 687 617.5 Q 692.4 613.4 694 605.5 L 690 594.5 L 689 587.5 L 676 568.5 L 675 511.5 L 676 510.5 L 676 482.5 L 675 477.5 L 676 474.5 Q 673.8 473.3 675 468.5 L 676 463.5 L 673 453.5 Q 674.1 445.3 672 442 L 669 440.5 L 669.5 438 Z " /><path fill="rgb(55,61,44)" stroke="rgb(55,61,44)" stroke-width="1" opacity="0.2549019607843137" d="M 453.5 574 L 465 584.5 L 466 586.5 L 464 585.5 L 454.5 575 L 453.5 574 Z " /><path fill="rgb(55,61,44)" stroke="rgb(55,61,44)" stroke-width="1" opacity="0.2549019607843137" d="M 446.5 581 L 447 586.5 L 446 586.5 L 446.5 581 Z " /><path fill="rgb(55,61,44)" stroke="rgb(55,61,44)" stroke-width="1" opacity="0.2549019607843137" d="M 453.5 614 L 455 616.5 L 454 616.5 L 453.5 614 Z " /><path fill="rgb(55,61,44)" stroke="rgb(55,61,44)" stroke-width="1" opacity="0.2549019607843137" d="M 455.5 618 L 458 622.5 L 456 621.5 L 455.5 618 Z " /><path fill="rgb(55,61,44)" stroke="rgb(55,61,44)" stroke-width="1" opacity="0.2549019607843137" d="M 685.5 619 L 685 620.5 L 683 626.5 L 682 636.5 L 672.5 650 L 673 648.5 L 681 636.5 L 683 622.5 L 685.5 619 Z " /><path fill="rgb(55,61,44)" stroke="rgb(55,61,44)" stroke-width="1" opacity="0.2549019607843137" d="M 457.5 625 L 458.5 627 L 457.5 625 Z " /><path fill="rgb(55,61,44)" stroke="rgb(55,61,44)" stroke-width="1" opacity="0.2549019607843137" d="M 459.5 628 L 462.5 632 L 459.5 628 Z " /><path fill="rgb(55,61,44)" stroke="rgb(55,61,44)" stroke-width="1" opacity="0.2549019607843137" d="M 464.5 635 L 465.5 637 L 464.5 635 Z " /><path fill="rgb(55,61,44)" stroke="rgb(55,61,44)" stroke-width="1" opacity="0.2549019607843137" d="M 466.5 638 L 467.5 640 L 466.5 638 Z " /><path fill="rgb(55,61,44)" stroke="rgb(55,61,44)" stroke-width="1" opacity="0.2549019607843137" d="M 468.5 641 L 477 648.5 L 475.5 649 L 468.5 641 Z " /><path fill="rgb(55,61,44)" stroke="rgb(55,61,44)" stroke-width="1" opacity="0.2549019607843137" d="M 477.5 650 L 478.5 652 L 477.5 650 Z " /><path fill="rgb(55,61,44)" stroke="rgb(55,61,44)" stroke-width="1" opacity="0.2549019607843137" d="M 667.5 651 L 669 651.5 L 667 652 Q 668.1 654.7 665.5 654 Q 660.1 658 651 657 Q 652.4 653.3 646.5 655 L 645.5 656 L 587.5 656 L 587.5 655 L 645.5 655 L 650.5 654 Q 651.8 657.3 657.5 656 L 664.5 654 L 667.5 651 Z " /><path fill="rgb(55,61,44)" stroke="rgb(55,61,44)" stroke-width="1" opacity="0.2549019607843137" d="M 480.5 652 L 483.5 654 L 495 654.5 L 483.5 655 L 480.5 652 Z " /><path fill="rgb(55,61,44)" stroke="rgb(55,61,44)" stroke-width="1" opacity="0.2549019607843137" d="M 496.5 654 L 531 655.5 L 510.5 656 L 509.5 655 L 496.5 655 L 496.5 654 Z " /><path fill="rgb(55,61,44)" stroke="rgb(55,61,44)" stroke-width="1" opacity="0.2549019607843137" d="M 532.5 654 L 562.5 654 L 569.5 656 L 571.5 655 L 571.5 656 L 568.5 657 L 562.5 655 L 532.5 655 L 532.5 654 Z " /><path fill="rgb(55,61,44)" stroke="rgb(55,61,44)" stroke-width="1" opacity="0.2549019607843137" d="M 573.5 654 L 579 654.5 L 573.5 655 L 573.5 654 Z " /><path fill="rgb(55,61,44)" stroke="rgb(55,61,44)" stroke-width="1" opacity="0.2549019607843137" d="M 583.5 655 L 586 655.5 L 583.5 656 L 583.5 655 Z " /><path fill="rgb(55,61,44)" stroke="rgb(55,61,44)" stroke-width="1" opacity="0.2549019607843137" d="M 123 808 L 128 808.5 L 124 809 L 123.5 950 L 123 808 Z " /><path fill="rgb(55,61,44)" stroke="rgb(55,61,44)" stroke-width="1" opacity="0.2549019607843137" d="M 272.5 808 L 276 808.5 L 272.5 809 L 272.5 808 Z " /><path fill="rgb(55,61,44)" stroke="rgb(55,61,44)" stroke-width="1" opacity="0.2549019607843137" d="M 405 808 L 407 808.5 L 406 809.5 L 405.5 928 L 389 895.5 L 379.5 885 L 376 884 Q 374.9 881.3 377.5 882 Q 385.6 879.1 390 872.5 L 394 863.5 L 395 852.5 L 393 841.5 Q 389.9 833.1 383.5 828 L 372 822.5 L 373.5 822 Q 382.4 824.6 388 830.5 L 396 846.5 L 396 861.5 L 392 872.5 L 387 879 L 384.5 879 L 379 883.5 L 382 884 L 391 895.5 L 404.5 922 L 405 808 Z " /><path fill="rgb(55,61,44)" stroke="rgb(55,61,44)" stroke-width="1" opacity="0.2549019607843137" d="M 588.5 808 L 591 808.5 L 591 923 L 637.5 923 L 647 927.5 L 645.5 928 L 637.5 924 L 590 924 L 590 809.5 L 588.5 809 L 588.5 808 Z " /><path fill="rgb(55,61,44)" stroke="rgb(55,61,44)" stroke-width="1" opacity="0.2549019607843137" d="M 740.5 808 L 743 808.5 L 740.5 809 L 740.5 808 Z " /><path fill="rgb(55,61,44)" stroke="rgb(55,61,44)" stroke-width="1" opacity="0.2549019607843137" d="M 848.5 808 Q 853.3 806.3 852 810.5 L 851 810.5 Q 851.8 807.9 848.5 809 L 848.5 808 Z " /><path fill="rgb(55,61,44)" stroke="rgb(55,61,44)" stroke-width="1" opacity="0.2549019607843137" d="M 943.5 814 L 951 820.5 L 945.5 816 L 943.5 814 Z " /><path fill="rgb(55,61,44)" stroke="rgb(55,61,44)" stroke-width="1" opacity="0.2549019607843137" d="M 441.5 817 L 447 820 L 447 936.5 L 444.5 939 L 432.5 946 L 432.5 945 L 446 937 L 446 821.5 L 444.5 821 L 441.5 817 Z " /><path fill="rgb(55,61,44)" stroke="rgb(55,61,44)" stroke-width="1" opacity="0.2549019607843137" d="M 697.5 817 L 699 817.5 L 691 822.5 L 730 925.5 L 735.5 937 L 744 940.5 L 742.5 940 L 733 936.5 L 719 898.5 L 714 888.5 L 710 874.5 L 706 867.5 L 705 861.5 L 698 846.5 L 698 843.5 Q 693.5 837 692 827.5 L 689 822.5 L 690 820 L 697.5 817 Z " /><path fill="rgb(55,61,44)" stroke="rgb(55,61,44)" stroke-width="1" opacity="0.2549019607843137" d="M 791.5 817 L 793 817.5 L 791.5 819 L 781.5 821 L 779 823.5 Q 772.8 845.3 763.5 864 L 762 860.5 L 764 860.5 L 769 848.5 L 770 842.5 L 778 824.5 L 778 821 L 791.5 817 Z " /><path fill="rgb(55,61,44)" stroke="rgb(55,61,44)" stroke-width="1" opacity="0.2549019607843137" d="M 491.5 818 L 494 820.5 L 494 923 L 549.5 923 L 550 924.5 L 548.5 924 L 493 924 L 493 821.5 Q 490 820.5 491.5 818 Z " /><path fill="rgb(55,61,44)" stroke="rgb(55,61,44)" stroke-width="1" opacity="0.2549019607843137" d="M 241.5 820 L 245 820.5 L 241.5 821 L 241.5 820 Z " /><path fill="rgb(55,61,44)" stroke="rgb(55,61,44)" stroke-width="1" opacity="0.2549019607843137" d="M 246.5 821 L 250 821.5 L 246.5 822 L 246.5 821 Z " /><path fill="rgb(55,61,44)" stroke="rgb(55,61,44)" stroke-width="1" opacity="0.2549019607843137" d="M 565.5 821 L 566 937.5 L 565 937.5 L 565.5 821 Z " /><path fill="rgb(55,61,44)" stroke="rgb(55,61,44)" stroke-width="1" opacity="0.2549019607843137" d="M 251.5 822 L 254 822.5 L 251.5 823 L 251.5 822 Z " /><path fill="rgb(55,61,44)" stroke="rgb(55,61,44)" stroke-width="1" opacity="0.2549019607843137" d="M 951.5 822 L 952.5 824 L 951.5 822 Z " /><path fill="rgb(55,61,44)" stroke="rgb(55,61,44)" stroke-width="1" opacity="0.2549019607843137" d="M 255.5 823 L 267.5 826 L 272 829.5 L 270.5 829 L 255.5 824 L 255.5 823 Z " /><path fill="rgb(55,61,44)" stroke="rgb(55,61,44)" stroke-width="1" opacity="0.2549019607843137" d="M 953.5 825 L 955 827.5 L 954 827.5 L 953.5 825 Z " /><path fill="rgb(55,61,44)" stroke="rgb(55,61,44)" stroke-width="1" opacity="0.2549019607843137" d="M 955.5 829 Q 959.8 835.7 958 848.5 L 957 848.5 Q 958.1 835.7 955.5 829 Z " /><path fill="rgb(55,61,44)" stroke="rgb(55,61,44)" stroke-width="1" opacity="0.2549019607843137" d="M 847.5 833 Q 859.5 832.5 864 839.5 L 867 844.5 L 868 851.5 L 865 860.5 L 860.5 865 Q 858.2 867.7 852.5 867 L 852.5 866 Q 861.5 866 864 859.5 Q 867 855.5 866 847.5 L 860.5 838 L 853.5 834 L 847.5 834 L 847.5 833 Z " /><path fill="rgb(55,61,44)" stroke="rgb(55,61,44)" stroke-width="1" opacity="0.2549019607843137" d="M 336 834 L 339 834.5 L 338 835.5 L 338 863.5 Q 340.7 865.3 336.5 867 L 336 834 Z " /><path fill="rgb(55,61,44)" stroke="rgb(55,61,44)" stroke-width="1" opacity="0.2549019607843137" d="M 342.5 845 L 343 853.5 L 342 853.5 L 342.5 845 Z " /><path fill="rgb(55,61,44)" stroke="rgb(55,61,44)" stroke-width="1" opacity="0.2549019607843137" d="M 214.5 847 Q 217.3 848.3 215 849.5 L 215.5 908 L 217 907.5 L 214.5 912 L 214.5 847 Z " /><path fill="rgb(55,61,44)" stroke="rgb(55,61,44)" stroke-width="1" opacity="0.2549019607843137" d="M 956.5 850 L 957 852.5 L 956 852.5 L 956.5 850 Z " /><path fill="rgb(55,61,44)" stroke="rgb(55,61,44)" stroke-width="1" opacity="0.2549019607843137" d="M 954.5 856 L 955 857.5 L 951.5 862 L 953 859.5 L 954.5 856 Z " /><path fill="rgb(55,61,44)" stroke="rgb(55,61,44)" stroke-width="1" opacity="0.2549019607843137" d="M 219.5 859 L 220 861.5 L 219 861.5 L 219.5 859 Z " /><path fill="rgb(55,61,44)" stroke="rgb(55,61,44)" stroke-width="1" opacity="0.2549019607843137" d="M 220.5 864 L 221 867.5 L 220 867.5 L 220.5 864 Z " /><path fill="rgb(55,61,44)" stroke="rgb(55,61,44)" stroke-width="1" opacity="0.2549019607843137" d="M 948.5 865 L 947.5 867 L 948.5 865 Z " /><path fill="rgb(55,61,44)" stroke="rgb(55,61,44)" stroke-width="1" opacity="0.2549019607843137" d="M 829.5 867 L 833 868.5 L 830 869 L 830 880.5 L 832.5 881 L 833.5 882 L 850 882.5 L 830.5 883 L 828 882 L 828 874.5 L 827 873.5 L 829.5 867 Z " /><path fill="rgb(55,61,44)" stroke="rgb(55,61,44)" stroke-width="1" opacity="0.2549019607843137" d="M 945.5 867 L 944.5 869 L 945.5 867 Z " /><path fill="rgb(55,61,44)" stroke="rgb(55,61,44)" stroke-width="1" opacity="0.2549019607843137" d="M 935 872 L 937 872.5 L 936.5 875 L 935 872 Z " /><path fill="rgb(55,61,44)" stroke="rgb(55,61,44)" stroke-width="1" opacity="0.2549019607843137" d="M 221.5 875 L 222 883.5 L 221 883.5 L 221.5 875 Z " /><path fill="rgb(55,61,44)" stroke="rgb(55,61,44)" stroke-width="1" opacity="0.2549019607843137" d="M 945.5 878 L 946.5 880 L 945.5 878 Z " /><path fill="rgb(55,61,44)" stroke="rgb(55,61,44)" stroke-width="1" opacity="0.2549019607843137" d="M 948.5 880 Q 954.8 884.8 958 892.5 L 957 892.5 L 948.5 880 Z " /><path fill="rgb(55,61,44)" stroke="rgb(55,61,44)" stroke-width="1" opacity="0.2549019607843137" d="M 852.5 883 L 856.5 883 L 864 887 L 864 889 Q 866.7 887.9 866 890.5 Q 871.7 895.8 870 908.5 L 866 918 L 856.5 924 L 848.5 924 L 848.5 923 Q 862 923.5 866 914.5 Q 870.4 909.4 869 898.5 Q 866.4 891.1 860.5 887 L 852.5 884 L 852.5 883 Z " /><path fill="rgb(55,61,44)" stroke="rgb(55,61,44)" stroke-width="1" opacity="0.2549019607843137" d="M 220.5 890 L 221 893.5 L 220 893.5 L 220.5 890 Z " /><path fill="rgb(55,61,44)" stroke="rgb(55,61,44)" stroke-width="1" opacity="0.2549019607843137" d="M 959.5 896 L 960 898.5 L 959 898.5 L 959.5 896 Z " /><path fill="rgb(55,61,44)" stroke="rgb(55,61,44)" stroke-width="1" opacity="0.2549019607843137" d="M 960.5 900 L 961 907.5 L 960 907.5 L 960.5 900 Z " /><path fill="rgb(55,61,44)" stroke="rgb(55,61,44)" stroke-width="1" opacity="0.2549019607843137" d="M 336.5 902 L 340 906.5 L 338 906.5 L 338 935.5 L 337 938 L 325.5 941 L 325.5 940 L 336 935.5 L 336.5 902 Z " /><path fill="rgb(55,61,44)" stroke="rgb(55,61,44)" stroke-width="1" opacity="0.2549019607843137" d="M 960.5 909 L 961 918.5 L 955.5 931 L 956 929.5 L 960 918.5 L 960.5 909 Z " /><path fill="rgb(55,61,44)" stroke="rgb(55,61,44)" stroke-width="1" opacity="0.2549019607843137" d="M 810.5 917 Q 814.8 919.8 822 919.5 L 813.5 920 L 810 919 L 810.5 917 Z " /><path fill="rgb(55,61,44)" stroke="rgb(55,61,44)" stroke-width="1" opacity="0.2549019607843137" d="M 826.5 920 L 830 920.5 L 826.5 921 L 826.5 920 Z " /><path fill="rgb(55,61,44)" stroke="rgb(55,61,44)" stroke-width="1" opacity="0.2549019607843137" d="M 834.5 921 L 838 921.5 L 834.5 922 L 834.5 921 Z " /><path fill="rgb(55,61,44)" stroke="rgb(55,61,44)" stroke-width="1" opacity="0.2549019607843137" d="M 841.5 922 L 847 922.5 L 841.5 923 L 841.5 922 Z " /><path fill="rgb(55,61,44)" stroke="rgb(55,61,44)" stroke-width="1" opacity="0.2549019607843137" d="M 271.5 928 L 272 930 L 255.5 936 L 243.5 938 L 243.5 937 Q 260.3 935.3 271.5 928 Z " /><path fill="rgb(55,61,44)" stroke="rgb(55,61,44)" stroke-width="1" opacity="0.2549019607843137" d="M 657.5 932 L 659 933.5 L 659 949.5 L 657.5 951 L 570.5 951 L 570.5 950 L 657.5 950 L 658 949.5 L 658 933.5 L 657.5 932 Z " /><path fill="rgb(55,61,44)" stroke="rgb(55,61,44)" stroke-width="1" opacity="0.2549019607843137" d="M 954.5 932 L 952.5 935 L 954.5 932 Z " /><path fill="rgb(55,61,44)" stroke="rgb(55,61,44)" stroke-width="1" opacity="0.2549019607843137" d="M 809.5 933 L 832 939.5 L 828.5 940 L 810.5 935 L 809.5 933 Z " /><path fill="rgb(55,61,44)" stroke="rgb(55,61,44)" stroke-width="1" opacity="0.2549019607843137" d="M 951.5 936 L 947.5 941 L 937.5 947 L 937.5 946 Q 946.1 942.6 951.5 936 Z " /><path fill="rgb(55,61,44)" stroke="rgb(55,61,44)" stroke-width="1" opacity="0.2549019607843137" d="M 239.5 938 L 242 938.5 L 239.5 939 L 239.5 938 Z " /><path fill="rgb(55,61,44)" stroke="rgb(55,61,44)" stroke-width="1" opacity="0.2549019607843137" d="M 234.5 939 L 238 939.5 L 234.5 940 L 234.5 939 Z " /><path fill="rgb(55,61,44)" stroke="rgb(55,61,44)" stroke-width="1" opacity="0.2549019607843137" d="M 405.5 939 L 406 949 L 427 949.5 L 406.5 950 L 405 948.5 Q 406.8 942.3 404 940.5 L 405.5 939 Z " /><path fill="rgb(55,61,44)" stroke="rgb(55,61,44)" stroke-width="1" opacity="0.2549019607843137" d="M 228.5 940 L 233 940.5 L 228.5 941 L 228.5 940 Z " /><path fill="rgb(55,61,44)" stroke="rgb(55,61,44)" stroke-width="1" opacity="0.2549019607843137" d="M 833.5 940 L 836 940.5 L 833.5 941 L 833.5 940 Z " /><path fill="rgb(55,61,44)" stroke="rgb(55,61,44)" stroke-width="1" opacity="0.2549019607843137" d="M 223.5 941 L 227 941.5 L 223.5 942 L 223.5 941 Z " /><path fill="rgb(55,61,44)" stroke="rgb(55,61,44)" stroke-width="1" opacity="0.2549019607843137" d="M 746.5 941 L 751 942.5 L 748.5 943 L 746.5 941 Z " /><path fill="rgb(55,61,44)" stroke="rgb(55,61,44)" stroke-width="1" opacity="0.2549019607843137" d="M 838.5 941 L 841 941.5 L 838.5 942 L 838.5 941 Z " /><path fill="rgb(55,61,44)" stroke="rgb(55,61,44)" stroke-width="1" opacity="0.2549019607843137" d="M 218.5 942 L 222 942.5 L 218.5 943 L 218.5 942 Z " /><path fill="rgb(55,61,44)" stroke="rgb(55,61,44)" stroke-width="1" opacity="0.2549019607843137" d="M 842.5 942 L 845 942.5 L 842.5 943 L 842.5 942 Z " /><path fill="rgb(55,61,44)" stroke="rgb(55,61,44)" stroke-width="1" opacity="0.2549019607843137" d="M 213.5 943 L 217 943.5 L 213.5 944 L 213.5 943 Z " /><path fill="rgb(55,61,44)" stroke="rgb(55,61,44)" stroke-width="1" opacity="0.2549019607843137" d="M 397.5 943 L 396.5 945 L 395 944.5 L 397.5 943 Z " /><path fill="rgb(55,61,44)" stroke="rgb(55,61,44)" stroke-width="1" opacity="0.2549019607843137" d="M 847.5 943 L 850 943.5 L 847.5 944 L 847.5 943 Z " /><path fill="rgb(55,61,44)" stroke="rgb(55,61,44)" stroke-width="1" opacity="0.2549019607843137" d="M 208.5 944 L 212 944.5 L 208.5 945 L 208.5 944 Z " /><path fill="rgb(55,61,44)" stroke="rgb(55,61,44)" stroke-width="1" opacity="0.2549019607843137" d="M 358.5 944 L 361 948.5 L 359 947.5 L 358.5 944 Z " /><path fill="rgb(55,61,44)" stroke="rgb(55,61,44)" stroke-width="1" opacity="0.2549019607843137" d="M 851.5 944 L 855 944.5 L 851.5 945 L 851.5 944 Z " /><path fill="rgb(55,61,44)" stroke="rgb(55,61,44)" stroke-width="1" opacity="0.2549019607843137" d="M 203.5 945 L 207 945.5 L 203.5 946 L 203.5 945 Z " /><path fill="rgb(55,61,44)" stroke="rgb(55,61,44)" stroke-width="1" opacity="0.2549019607843137" d="M 856.5 945 L 859 945.5 L 856.5 946 L 856.5 945 Z " /><path fill="rgb(55,61,44)" stroke="rgb(55,61,44)" stroke-width="1" opacity="0.2549019607843137" d="M 199.5 946 L 202 946.5 L 199.5 947 L 199.5 946 Z " /><path fill="rgb(55,61,44)" stroke="rgb(55,61,44)" stroke-width="1" opacity="0.2549019607843137" d="M 860.5 946 L 864 946.5 L 860.5 947 L 860.5 946 Z " /><path fill="rgb(55,61,44)" stroke="rgb(55,61,44)" stroke-width="1" opacity="0.2549019607843137" d="M 192.5 947 L 196 947.5 L 192.5 948 L 192.5 947 Z " /><path fill="rgb(55,61,44)" stroke="rgb(55,61,44)" stroke-width="1" opacity="0.2549019607843137" d="M 866.5 947 L 869 947.5 L 866.5 948 L 866.5 947 Z " /><path fill="rgb(55,61,44)" stroke="rgb(55,61,44)" stroke-width="1" opacity="0.2549019607843137" d="M 934.5 947 L 936 947.5 L 924.5 951 L 924.5 950 L 934.5 947 Z " /><path fill="rgb(55,61,44)" stroke="rgb(55,61,44)" stroke-width="1" opacity="0.2549019607843137" d="M 186.5 948 L 191 948.5 L 186.5 949 L 186.5 948 Z " /><path fill="rgb(55,61,44)" stroke="rgb(55,61,44)" stroke-width="1" opacity="0.2549019607843137" d="M 870.5 948 L 874 948.5 L 870.5 949 L 870.5 948 Z " /><path fill="rgb(55,61,44)" stroke="rgb(55,61,44)" stroke-width="1" opacity="0.2549019607843137" d="M 169.5 949 L 185 949.5 L 169.5 950 L 169.5 949 Z " /><path fill="rgb(55,61,44)" stroke="rgb(55,61,44)" stroke-width="1" opacity="0.2549019607843137" d="M 463.5 949 L 464.5 950 L 551 950.5 L 464.5 951 L 463.5 949 Z " /><path fill="rgb(55,61,44)" stroke="rgb(55,61,44)" stroke-width="1" opacity="0.2549019607843137" d="M 875.5 949 L 884 950.5 L 879.5 951 L 875.5 950 L 875.5 949 Z " /><path fill="rgb(55,61,44)" stroke="rgb(55,61,44)" stroke-width="1" opacity="0.2549019607843137" d="M 125.5 950 L 168 950.5 L 125.5 951 L 125.5 950 Z " /><path fill="rgb(55,61,44)" stroke="rgb(55,61,44)" stroke-width="1" opacity="0.2549019607843137" d="M 273.5 950 L 292 950.5 L 273.5 951 L 273.5 950 Z " /><path fill="rgb(55,61,44)" stroke="rgb(55,61,44)" stroke-width="1" opacity="0.2549019607843137" d="M 362.5 950 L 383 950.5 L 362.5 951 L 362.5 950 Z " /><path fill="rgb(55,61,44)" stroke="rgb(55,61,44)" stroke-width="1" opacity="0.2549019607843137" d="M 775.5 950 L 797 950.5 L 775.5 951 L 775.5 950 Z " /><path fill="rgb(55,61,44)" stroke="rgb(55,61,44)" stroke-width="1" opacity="0.2549019607843137" d="M 885.5 951 L 895 951.5 L 885.5 952 L 885.5 951 Z " /><path fill="rgb(55,61,44)" stroke="rgb(55,61,44)" stroke-width="1" opacity="0.2549019607843137" d="M 917.5 951 L 923 951.5 Q 912.4 954.9 896.5 953 L 896.5 952 L 916.5 952 L 917.5 951 Z " /><path fill="rgb(187,156,45)" stroke="rgb(187,156,45)" stroke-width="1" opacity="0.5450980392156862" d="M 573.5 67 L 577 68.5 L 575.5 69 L 573.5 67 Z " /><path fill="rgb(187,156,45)" stroke="rgb(187,156,45)" stroke-width="1" opacity="0.5450980392156862" d="M 680.5 83 L 683 83.5 L 680.5 84 L 680.5 83 Z " /><path fill="rgb(187,156,45)" stroke="rgb(187,156,45)" stroke-width="1" opacity="0.5450980392156862" d="M 611.5 84 L 614 84.5 L 607.5 86 L 607.5 85 L 611.5 84 Z " /><path fill="rgb(187,156,45)" stroke="rgb(187,156,45)" stroke-width="1" opacity="0.5450980392156862" d="M 694.5 84 L 698.5 89 L 694.5 84 Z " /><path fill="rgb(187,156,45)" stroke="rgb(187,156,45)" stroke-width="1" opacity="0.5450980392156862" d="M 605.5 86 L 605 87.5 L 603.5 92 L 603 89.5 L 605.5 86 Z " /><path fill="rgb(187,156,45)" stroke="rgb(187,156,45)" stroke-width="1" opacity="0.5450980392156862" d="M 677.5 86 L 677 87.5 L 675.5 91 L 676 89.5 L 677.5 86 Z " /><path fill="rgb(187,156,45)" stroke="rgb(187,156,45)" stroke-width="1" opacity="0.5450980392156862" d="M 622.5 87 L 625 88.5 L 624.5 90 L 622.5 87 Z " /><path fill="rgb(187,156,45)" stroke="rgb(187,156,45)" stroke-width="1" opacity="0.5450980392156862" d="M 626.5 92 L 629 93.5 L 627.5 94 L 626.5 92 Z " /><path fill="rgb(187,156,45)" stroke="rgb(187,156,45)" stroke-width="1" opacity="0.5450980392156862" d="M 641.5 92 L 644 93.5 L 642.5 94 L 641.5 92 Z " /><path fill="rgb(187,156,45)" stroke="rgb(187,156,45)" stroke-width="1" opacity="0.5450980392156862" d="M 703.5 92 L 705.5 95 L 703.5 92 Z " /><path fill="rgb(187,156,45)" stroke="rgb(187,156,45)" stroke-width="1" opacity="0.5450980392156862" d="M 317.5 132 L 322 132.5 L 317.5 133 L 307.5 138 L 299.5 145 L 304.5 139 L 317.5 132 Z " /><path fill="rgb(187,156,45)" stroke="rgb(187,156,45)" stroke-width="1" opacity="0.5450980392156862" d="M 291.5 151 L 297 151.5 Q 289.3 150.8 287.5 156 L 291.5 151 Z " /><path fill="rgb(187,156,45)" stroke="rgb(187,156,45)" stroke-width="1" opacity="0.5450980392156862" d="M 276.5 163 L 286 163.5 L 276.5 164 L 264.5 168 L 248.5 169 L 243.5 174 L 248.5 168 L 264.5 167 L 276.5 163 Z " /><path fill="rgb(187,156,45)" stroke="rgb(187,156,45)" stroke-width="1" opacity="0.5450980392156862" d="M 245.5 190 L 243.5 193 L 245.5 190 Z " /><path fill="rgb(187,156,45)" stroke="rgb(187,156,45)" stroke-width="1" opacity="0.5450980392156862" d="M 247.5 192 L 250 192.5 L 247.5 193 L 247.5 192 Z " /><path fill="rgb(187,156,45)" stroke="rgb(187,156,45)" stroke-width="1" opacity="0.5450980392156862" d="M 262.5 195 L 266 195.5 L 262.5 196 L 262.5 195 Z " /><path fill="rgb(187,156,45)" stroke="rgb(187,156,45)" stroke-width="1" opacity="0.5450980392156862" d="M 267.5 196 L 271 196.5 L 267.5 197 L 267.5 196 Z " /><path fill="rgb(187,156,45)" stroke="rgb(187,156,45)" stroke-width="1" opacity="0.5450980392156862" d="M 273.5 197 L 276 197.5 L 273.5 198 L 273.5 197 Z " /><path fill="rgb(187,156,45)" stroke="rgb(187,156,45)" stroke-width="1" opacity="0.5450980392156862" d="M 278.5 198 L 281 198.5 L 278.5 199 L 278.5 198 Z " /><path fill="rgb(187,156,45)" stroke="rgb(187,156,45)" stroke-width="1" opacity="0.5450980392156862" d="M 283.5 199 L 286 199.5 L 283.5 200 L 283.5 199 Z " /><path fill="rgb(187,156,45)" stroke="rgb(187,156,45)" stroke-width="1" opacity="0.5450980392156862" d="M 311.5 226 L 312.5 228 L 311.5 226 Z " /><path fill="rgb(187,156,45)" stroke="rgb(187,156,45)" stroke-width="1" opacity="0.5450980392156862" d="M 739.5 238 L 740 240.5 L 739 240.5 L 739.5 238 Z " /><path fill="rgb(187,156,45)" stroke="rgb(187,156,45)" stroke-width="1" opacity="0.5450980392156862" d="M 448.5 262 L 445 266.5 L 443 271.5 L 443 290.5 L 445 298.5 L 449 303.5 L 448 303.5 L 444 298.5 L 442 290.5 L 442 271.5 Q 443.5 265 448.5 262 Z " /><path fill="rgb(187,156,45)" stroke="rgb(187,156,45)" stroke-width="1" opacity="0.5450980392156862" d="M 490 376 Q 493 374.8 492 378.5 L 493.5 381 L 490 376 Z " /><path fill="rgb(187,156,45)" stroke="rgb(187,156,45)" stroke-width="1" opacity="0.5450980392156862" d="M 501.5 381 L 503 381.5 L 497.5 383 L 497.5 382 L 501.5 381 Z " /><path fill="rgb(187,156,45)" stroke="rgb(187,156,45)" stroke-width="1" opacity="0.5450980392156862" d="M 538.5 423 L 539 429.5 L 538 429.5 L 538.5 423 Z " /><path fill="rgb(187,156,45)" stroke="rgb(187,156,45)" stroke-width="1" opacity="0.5450980392156862" d="M 562.5 508 L 563 510.5 L 562 510.5 L 562.5 508 Z " /><path fill="rgb(187,156,45)" stroke="rgb(187,156,45)" stroke-width="1" opacity="0.5450980392156862" d="M 538.5 568 L 544 568.5 L 538.5 569 L 538.5 568 Z " /><path fill="rgb(187,156,45)" stroke="rgb(187,156,45)" stroke-width="1" opacity="0.5450980392156862" d="M 472.5 589 L 477 589.5 L 472.5 590 L 472.5 589 Z " /><path fill="rgb(187,156,45)" stroke="rgb(187,156,45)" stroke-width="1" opacity="0.5450980392156862" d="M 887.5 807 L 892 807.5 L 872 812 L 872 828.5 L 874.5 829 L 889.5 824 L 901.5 823 L 902.5 822 L 914.5 822 L 923.5 824 L 929.5 827 L 935 832.5 Q 939.5 838 938 849.5 Q 936.8 857.8 930.5 861 L 918.5 866 L 893.5 866 L 892 867.5 L 892 882 L 915.5 882 L 928.5 886 L 938 894.5 L 941 901.5 Q 939.5 907 942 908.5 L 940 918.5 Q 937.8 925.3 932.5 929 L 919.5 935 Q 914.8 933.7 913.5 936 L 895.5 936 L 878.5 932 L 868 927 L 868 944.5 L 869.5 946 L 883 949.5 L 879.5 950 L 836.5 941 L 809 933 L 809 920.5 L 810.5 919 L 833.5 921 L 848.5 924 L 856.5 924 L 866 918 L 870 908.5 L 870 898.5 L 866 889 L 864 889 Q 865.1 886.3 862.5 887 L 856.5 883 L 833.5 882 L 830 881 L 830 869.5 L 832.5 869 L 833.5 868 L 843.5 868 L 844.5 867 L 856.5 867 L 865 860.5 L 868 850.5 L 866 842.5 L 860.5 836 Q 856.4 832.1 847.5 833 L 842.5 834 L 843 832.5 L 848 817.5 L 850.5 815 L 887.5 807 Z M 937 839 L 936 849 L 937 849 L 937 839 Z M 891 868 L 890 881 L 891 881 L 891 868 Z M 940 902 L 939 907 L 940 907 L 940 902 Z M 940 909 L 939 915 L 940 915 L 940 909 Z M 867 928 L 866 944 L 867 944 L 867 928 Z " /><path fill="rgb(187,156,45)" stroke="rgb(187,156,45)" stroke-width="1" opacity="0.5450980392156862" d="M 167.5 808 L 172 808.5 L 167.5 809 L 167.5 808 Z " /><path fill="rgb(187,156,45)" stroke="rgb(187,156,45)" stroke-width="1" opacity="0.5450980392156862" d="M 319.5 808 L 322 808.5 L 319.5 809 L 319.5 808 Z " /><path fill="rgb(187,156,45)" stroke="rgb(187,156,45)" stroke-width="1" opacity="0.5450980392156862" d="M 425 808 L 435.5 813 L 446 821 L 446 936.5 L 444.5 937 Q 439.9 943 432 945 Q 433.1 947.7 430.5 947 L 425 949 L 425 808 Z " /><path fill="rgb(187,156,45)" stroke="rgb(187,156,45)" stroke-width="1" opacity="0.5450980392156862" d="M 482 808 L 486 810.5 L 493 821.5 L 493 924 L 548.5 924 L 550 925.5 L 551 934 L 483.5 934 L 482 932.5 L 482 808 Z " /><path fill="rgb(187,156,45)" stroke="rgb(187,156,45)" stroke-width="1" opacity="0.5450980392156862" d="M 570.5 808 L 571 949.5 L 570 949.5 L 566 938.5 L 566 819.5 L 570.5 808 Z " /><path fill="rgb(187,156,45)" stroke="rgb(187,156,45)" stroke-width="1" opacity="0.5450980392156862" d="M 721.5 808 Q 724.1 807.2 723 810.5 L 775 947.5 L 777 949.5 L 773.5 950 L 747.5 941 L 744.5 941 L 734 935.5 L 691 822.5 L 705.5 814 L 721.5 808 Z " /><path fill="rgb(187,156,45)" stroke="rgb(187,156,45)" stroke-width="1" opacity="0.5450980392156862" d="M 829.5 808 L 832 808.5 L 812 862 L 810 862.5 L 811 864.5 L 809 870 L 807 870.5 L 808 872.5 L 806 878 L 804 878.5 L 805 880.5 L 801 891 L 799 891.5 L 800 894 L 798 894.5 L 799 896.5 L 798 899 L 796 899.5 L 797 901.5 L 795 907 L 793 907.5 L 794 909.5 L 792 915 L 790 915.5 L 791 917.5 L 789 923 L 787 923.5 L 788 926 Q 785 927.3 786 923.5 L 764 863.5 L 779 823.5 L 781.5 821 L 791.5 819 L 796.5 816 L 829.5 808 Z " /><path fill="rgb(187,156,45)" stroke="rgb(187,156,45)" stroke-width="1" opacity="0.5450980392156862" d="M 179.5 809 L 186 809.5 L 179.5 810 L 179.5 809 Z " /><path fill="rgb(187,156,45)" stroke="rgb(187,156,45)" stroke-width="1" opacity="0.5450980392156862" d="M 328.5 809 L 332 809.5 L 328.5 810 L 328.5 809 Z " /><path fill="rgb(187,156,45)" stroke="rgb(187,156,45)" stroke-width="1" opacity="0.5450980392156862" d="M 187.5 810 L 193.5 810 L 219.5 816 L 224.5 816 L 241.5 821 L 250.5 822 L 266.5 827 L 272 830.5 L 272 927.5 L 270.5 929 L 258.5 934 L 238.5 939 L 228.5 940 L 198.5 947 L 193.5 947 L 193.5 946 Q 215.4 942.4 227 928.5 Q 235.3 919.3 239 905.5 L 242 888.5 L 242 869.5 L 241 868.5 L 240 856.5 L 235 841.5 Q 228.8 829.7 218.5 822 L 202.5 814 L 187.5 811 L 187.5 810 Z " /><path fill="rgb(187,156,45)" stroke="rgb(187,156,45)" stroke-width="1" opacity="0.5450980392156862" d="M 333.5 810 L 343.5 812 L 376.5 824 L 388 832.5 L 393 841.5 L 395 857.5 Q 392.8 858.8 394 863.5 L 390 872.5 L 383.5 879 L 376 882 Q 374.9 884.7 377.5 884 L 387 892.5 L 406 928.5 L 406 938.5 L 391.5 947 L 381 950 L 381 947.5 L 359 903.5 Q 353.4 893.1 344.5 886 L 340 883.5 L 354 876 L 362 861.5 L 363 856.5 L 363 840.5 Q 360.1 824.9 349.5 817 Q 343.5 812 333.5 811 L 333.5 810 Z " /><path fill="rgb(187,156,45)" stroke="rgb(187,156,45)" stroke-width="1" opacity="0.5450980392156862" d="M 143.5 825 L 145.5 825 L 179.5 825 Q 180.8 827.2 185.5 826 L 192.5 828 L 208 837 L 214 845.5 L 214 912.5 L 204.5 924 Q 195.6 930.6 182.5 933 Q 177 931.5 175.5 934 L 143 934 L 143.5 825 Z " /><path fill="rgb(187,156,45)" stroke="rgb(187,156,45)" stroke-width="1" opacity="0.5450980392156862" d="M 291.5 825 L 293.5 825 L 324.5 825 Q 333.8 826.8 338 833.5 L 336 834 L 336 867.5 L 334.5 869 L 323.5 874 L 291 874 L 291.5 825 Z " /><path fill="rgb(187,156,45)" stroke="rgb(187,156,45)" stroke-width="1" opacity="0.5450980392156862" d="M 292.5 890 L 314.5 890 Q 316 892.5 321.5 891 Q 331.3 893.8 336 901.5 L 336 935.5 L 334.5 937 Q 314.4 945.7 291 950 L 291 891.5 L 292.5 890 Z " /><path fill="rgb(187,156,45)" stroke="rgb(187,156,45)" stroke-width="1" opacity="0.5450980392156862" d="M 590 924 L 637.5 924 L 658 933.5 L 591.5 934 L 590 932.5 L 590 924 Z " /><path fill="rgb(187,156,45)" stroke="rgb(187,156,45)" stroke-width="1" opacity="0.5450980392156862" d="M 188.5 947 L 192 947.5 L 188.5 948 L 188.5 947 Z " /><path fill="rgb(187,156,45)" stroke="rgb(187,156,45)" stroke-width="1" opacity="0.5450980392156862" d="M 181.5 948 L 186 948.5 L 181.5 949 L 181.5 948 Z " /><path fill="rgb(187,156,45)" stroke="rgb(187,156,45)" stroke-width="1" opacity="0.5450980392156862" d="M 165.5 949 L 169 949.5 L 165.5 950 L 165.5 949 Z " /><path fill="rgb(187,156,45)" stroke="rgb(187,156,45)" stroke-width="1" opacity="0.5450980392156862" d="M 884.5 950 L 888 950.5 L 884.5 951 L 884.5 950 Z " /></svg>